<svg width="1089" height="686" viewBox="0 0 1089 686" fill="none" xmlns="http://www.w3.org/2000/svg">
<g clip-path="url(#clip0_35_525)">
<path d="M439.83 57.9122L416.976 41.7212L344.7 0L53.7646 24.7229L0.240118 55.8174L0 138.038L7.61829 142.446V142.533L15.2366 146.875V146.963L22.8549 151.283V151.37L30.6041 155.691L59.5929 172.427L59.3746 250.546L129.314 290.914L152.169 299.708L216.892 263.223L235.839 274.156L258.694 283.429L310.298 254.342L310.407 210.505L439.612 137.689L439.83 57.9122Z" fill="#D6D8E5"/>
<path d="M702.912 399.363L649.388 430.457L649.148 512.678L656.766 517.086V517.173L664.384 521.515V521.624L672.003 525.923V526.01L679.752 530.353L708.741 547.067L708.522 625.186L778.484 665.554L801.339 674.348L866.061 637.863L884.987 648.796L907.842 658.069L959.445 628.982L959.576 585.145L1088.76 512.329L1089 432.552L1066.15 416.361L993.848 374.64L702.912 399.363Z" fill="#D6D8E5"/>
<path d="M661.787 413.328L662.9 412.674L669.667 408.615L672.265 406.978C673.924 405.953 675.561 404.927 677.154 403.902L679.97 402.069C681.433 401.13 682.852 400.17 684.336 399.232L687.108 397.334C688.462 396.417 689.793 395.479 691.103 394.562L693.701 392.708L697.521 389.893L699.878 388.125L703.764 385.07L705.619 383.587C707.475 382.081 709.265 380.597 710.967 379.092L713.15 377.28C713.958 376.56 714.7 375.84 715.464 375.098L716.534 374.095C718.018 372.698 719.415 371.302 720.746 369.905C721.052 369.6 721.336 369.272 721.62 368.967C722.646 367.854 723.65 366.785 724.588 365.65C724.959 365.235 725.331 364.799 725.68 364.363L726.597 363.293C727.361 362.355 728.081 361.439 728.78 360.5L729.085 360.086C730.155 358.646 731.159 357.205 732.076 355.722C732.6 354.892 733.124 354.063 733.604 353.234C733.822 352.863 733.997 352.47 734.215 352.099C734.433 351.728 734.892 350.855 735.197 350.223C735.503 349.59 736.027 348.542 736.42 347.713C736.813 346.884 736.965 346.491 737.206 345.88C737.446 345.269 737.467 345.291 737.577 345.008C737.97 344.026 738.297 343.066 738.624 342.084C739.046 340.731 739.396 339.378 739.672 338.025C739.672 337.872 739.781 337.698 739.825 337.523C739.869 337.348 739.825 337.021 739.934 336.759C740.065 336.127 740.152 335.494 740.24 334.883C740.327 334.272 740.371 333.944 740.414 333.464C740.458 332.984 740.523 332.199 740.567 331.566C740.611 330.933 740.567 330.977 740.567 330.671C740.567 330.366 740.567 329.995 740.567 329.646L740.785 249.869C740.785 250.502 740.785 251.135 740.785 251.789V252.444C741.336 243.351 738.831 234.334 733.669 226.826C726.247 215.392 712.146 203.849 691.365 192.197C688.134 190.408 684.816 188.727 681.651 187.091C679.119 185.694 676.587 184.341 674.033 183.054C671.479 181.767 668.968 180.283 666.414 178.974C648.244 168.618 628.651 160.987 608.262 156.324C587.491 151.736 566.118 150.513 544.958 152.701C522.363 155.053 500.163 160.296 478.904 168.303C454.329 177.729 430.59 189.203 407.938 202.605C383.286 216.92 363.749 230.587 349.328 243.607C334.906 256.626 325.811 269.311 322.042 281.662C320.741 285.902 320.122 290.321 320.208 294.754C320.208 294.471 320.208 294.165 320.208 293.86L319.968 376.102C320.086 384.81 322.791 393.286 327.739 400.454C335.452 412.266 349.452 423.991 369.738 435.629C372.314 437.113 374.889 438.553 377.465 439.993L379.997 441.281C381.722 442.175 383.468 443.07 385.215 443.921C386.219 444.423 387.245 444.859 388.271 445.339C389.82 446.081 391.392 446.823 392.942 447.521C394.055 448.023 395.125 448.46 396.26 448.918C397.744 449.529 399.207 450.183 400.626 450.751L400.931 450.882C401.455 451.1 401.979 451.253 402.503 451.471C404.686 452.322 406.869 453.151 409.183 453.915L412.151 454.897L417.805 456.664L419.377 457.144L421.974 457.843L424.048 458.388C426.34 458.977 428.654 459.545 430.946 460.046L432.867 460.439C434.504 460.788 436.12 461.094 437.757 461.377L438.783 461.574C440.864 461.938 442.937 462.265 445.004 462.556H445.375L446.401 462.73C448.467 463.109 450.541 463.436 452.622 463.712H452.993L454.019 463.909L460.24 464.891C460.364 464.88 460.488 464.88 460.612 464.891L461.638 465.065C463.82 465.436 465.829 465.763 467.946 466.047H468.688L470.413 466.265C472.203 466.484 473.993 466.68 475.804 466.854L477.856 467.051L479.319 467.182C480.978 467.335 482.659 467.422 484.318 467.531H484.82C486.741 467.64 488.662 467.706 490.583 467.749H499.118H501.301H502.501C503.942 467.749 505.383 467.618 506.867 467.531H508.788C511.145 467.378 513.503 467.204 515.86 466.964H516.406C519.186 466.687 521.98 466.36 524.788 465.982L527.604 465.545C529.482 465.262 531.359 465 533.236 464.672L533.935 464.563L537.035 463.974L541.4 463.123L545.286 462.25C546.748 461.923 548.233 461.617 549.652 461.247L553.581 460.265L557.947 459.108L561.941 457.973L566.307 456.642L567.529 456.293L571.459 455.006L573.991 454.198C576.61 453.304 579.252 452.409 581.871 451.427C606.528 442.315 630.395 431.193 653.23 418.172C656.14 416.514 658.993 414.87 661.787 413.241V413.328ZM740.567 253.579C740.567 254.037 740.458 254.517 740.392 254.975C740.327 255.433 740.196 256.241 740.087 256.874C740.087 256.874 740.087 257.005 740.087 257.07C740.324 255.909 740.499 254.736 740.611 253.557L740.567 253.579ZM739.869 258.139C739.584 259.51 739.227 260.865 738.799 262.198C739.227 260.865 739.584 259.51 739.869 258.139ZM324.552 312.189C324.312 311.709 324.137 311.229 323.941 310.749C324.29 311.578 324.661 312.407 325.098 313.215C324.901 312.866 324.705 312.538 324.552 312.189Z" fill="#D6D8E5"/>
<path d="M276.376 42.3977L276.136 124.618L105.455 139.151L105.696 56.9303L276.376 42.3977Z" fill="#653AB8"/>
<path d="M127.175 129.07L126.935 211.29L0 138.038L0.240118 55.8174L127.175 129.07Z" fill="#4B2B89"/>
<path d="M416.976 41.7212L416.757 123.942L248.478 221.699L248.718 139.456L416.976 41.7212Z" fill="#6C3EC5"/>
<path d="M236.058 191.913L235.839 274.156L196.875 251.659L197.115 169.438L236.058 191.913Z" fill="#4B2B89"/>
<path d="M287.661 161.953L287.443 244.174L235.839 274.156L236.058 191.913L287.661 161.953Z" fill="#6C3EC5"/>
<path d="M129.555 208.693L129.314 290.914L59.3746 250.546L59.5929 168.325L129.555 208.693Z" fill="#4B2B89"/>
<path d="M197.115 169.438L196.875 251.658L129.314 290.914L129.554 208.693L197.115 169.438Z" fill="#6C3EC5"/>
<path d="M248.718 139.478L287.661 161.953L236.08 191.935L197.115 169.416L129.555 208.693L59.702 168.325L127.372 129.048L0.24012 55.8174L53.7646 24.7229L344.635 0L416.932 41.7212L248.718 139.478ZM178.866 99.1097L276.463 42.3758L105.783 56.9085L178.735 99.1097" fill="#7945DC"/>
<path d="M615.422 210.875C614.396 210.286 613.348 209.741 612.301 209.217L611.34 208.781C610.554 208.41 609.768 208.061 608.961 207.733L608.371 207.471L608.022 207.362C606.603 206.817 605.141 206.315 603.656 205.879L603.329 205.769L602.718 205.617C601.779 205.355 600.819 205.115 599.836 204.918L599.225 204.766H598.919C597.813 204.547 596.678 204.351 595.514 204.176C594.379 204.002 593.331 203.893 592.043 203.784H591.803H590.952L588.398 203.631H583.006C581.478 203.631 579.928 203.74 578.357 203.958H578.051L576.785 204.111L574.864 204.329L573.139 204.591L571.175 204.897L570.629 205.006H570.018C568.141 205.355 566.263 205.748 564.321 206.228C562.945 206.555 561.505 206.926 559.955 207.341L558.536 207.777L555.436 208.693L554.781 208.912L554.061 209.152C551.878 209.85 549.695 210.592 547.403 211.443L546.967 211.617C544.784 212.447 542.404 213.363 540.025 214.323L538.934 214.76C536.532 215.763 534.044 216.942 531.512 217.945L530.006 218.622C527.43 219.778 524.81 221 522.104 222.288L520.99 222.833C518.327 224.113 515.599 225.466 512.804 226.892L511.953 227.306C509.072 228.79 506.081 230.361 503.047 231.976L501.301 232.914C498.303 234.5 495.239 236.173 492.111 237.933L490.452 238.871C487.134 240.726 483.794 242.625 480.345 244.632L474.233 248.233L472.334 249.367L468.994 251.375L468.514 251.658C466.222 253.055 463.973 254.43 461.812 255.783L460.568 256.568L455.482 259.798L453.517 261.085L449.413 263.834L447.602 265.056C445.986 266.126 444.458 267.238 442.952 268.264L442.232 268.766C440.529 269.966 438.914 271.144 437.342 272.301L436.032 273.305L432.802 275.77L431.383 276.905L428.479 279.283L427.388 280.2C426.166 281.247 424.987 282.382 423.874 283.298C423.044 284.084 422.258 284.826 421.494 285.59L420.905 286.179L419.268 287.881L418.547 288.688L417.281 290.128L416.626 290.936L416.19 291.459C415.811 291.925 415.462 292.383 415.142 292.834C414.727 293.401 414.356 293.947 413.985 294.514L413.614 295.125L413.003 296.151C412.697 296.718 412.392 297.286 412.13 297.853L411.911 298.333C411.737 298.748 411.562 299.14 411.409 299.533V299.708C411.083 300.604 410.82 301.523 410.623 302.457C410.466 303.241 410.371 304.036 410.34 304.836C410.34 304.836 410.34 304.988 410.34 305.054C410.329 305.184 410.329 305.316 410.34 305.446L410.121 387.667C410.121 387.471 410.121 387.252 410.121 387.056C410.163 386.258 410.258 385.463 410.405 384.678C410.596 383.733 410.866 382.806 411.213 381.906C411.206 381.812 411.206 381.717 411.213 381.623L411.715 380.444C411.715 380.292 411.846 380.117 411.933 379.942C412.195 379.375 412.501 378.808 412.828 378.24C413.156 377.673 413.265 377.477 413.505 377.106C413.745 376.735 413.701 376.757 413.832 376.582C414.182 376.037 414.574 375.469 414.967 374.902C415.36 374.335 415.928 373.636 416.452 373.003C416.67 372.72 416.888 372.458 417.128 372.196C417.369 371.934 417.936 371.236 418.373 370.756L419.093 369.949L420.752 368.247L421.32 367.657C422.105 366.872 422.935 366.086 423.808 365.301C424.9 364.275 425.991 363.25 427.323 362.18L428.414 361.264C429.331 360.478 430.291 359.693 431.317 358.885L432.714 357.773C433.762 356.943 434.897 356.114 435.945 355.285L437.255 354.303C438.826 353.125 440.442 351.946 442.144 350.746L442.865 350.528C444.349 349.481 445.877 348.346 447.471 347.342L449.282 346.12L453.386 343.393L455.351 342.127L460.459 338.876L461.681 338.09C463.864 336.737 466.047 335.363 468.404 333.966L472.137 331.784L474.124 330.584L480.236 327.005C483.656 325.027 487.017 323.114 490.321 321.267L491.98 320.306C495.123 318.561 498.179 316.881 501.191 315.288L502.938 314.349C505.972 312.735 508.941 311.164 511.844 309.68L512.717 309.069C515.511 307.614 518.24 306.261 520.903 305.01L522.016 304.465C524.723 303.184 527.364 301.962 529.94 300.799L531.424 300.122C533.978 299.009 536.445 297.94 538.846 296.936L539.938 296.5C542.317 295.54 544.653 294.623 546.879 293.794L547.338 293.62C549.63 292.79 551.835 292.027 553.996 291.438L555.349 291.001C556.397 290.652 557.423 290.347 558.449 290.063L559.889 289.626C561.352 289.234 562.793 288.841 564.255 288.514C566.176 288.034 568.075 287.663 569.931 287.313L571.109 287.095L573.052 286.768L574.777 286.506L576.698 286.288L578.269 286.113C579.863 285.961 581.413 285.852 582.941 285.786H586.935H588.201C589.075 285.786 589.926 285.83 590.755 285.917H591.847C593.026 285.917 594.183 286.135 595.339 286.31C596.475 286.484 597.522 286.681 598.723 286.899L599.662 287.117C600.622 287.335 601.583 287.553 602.521 287.815L603.482 288.077C604.966 288.514 606.407 289.015 607.847 289.561L608.786 289.932C609.572 290.252 610.358 290.601 611.144 290.979C611.471 291.132 611.798 291.263 612.104 291.438C613.181 291.932 614.229 292.478 615.247 293.074C623.979 298.122 628.345 303.868 628.345 310.313L628.563 228.092C628.563 221.633 624.197 215.887 615.466 210.854" fill="#512E94"/>
<path d="M717.909 241.534C717.909 242.188 717.865 242.843 717.778 243.497C717.778 243.977 717.669 244.458 717.603 244.938C717.538 245.418 717.407 246.247 717.298 246.901L717.036 248.189C716.751 249.603 716.394 251.001 715.966 252.378C715.573 253.666 715.071 254.975 714.569 256.284C714.307 256.917 714.045 257.528 713.761 258.161C713.478 258.794 712.975 259.907 712.561 260.758L711.557 262.7C710.027 265.531 708.321 268.264 706.449 270.882L706.143 271.319C705.182 272.628 704.135 273.959 703.065 275.29L701.974 276.621C701.013 277.756 700.031 278.803 699.005 280.025L698.132 281.007C696.778 282.447 695.381 283.888 693.919 285.371L692.849 286.397C691.43 287.772 689.99 289.125 688.483 290.499C686.977 291.874 684.969 293.576 683.135 295.125L681.28 296.631C679.992 297.678 678.704 298.813 677.372 299.795L675.037 301.606L671.217 304.508L668.597 306.428L664.603 309.309L661.852 311.251L657.486 314.175L654.692 316.051L649.781 319.237C648.929 319.804 648.078 320.35 647.183 320.896C645 322.292 642.708 323.71 640.416 325.107L639.325 325.783C636.502 327.485 633.591 329.202 630.593 330.933C607.889 344.315 584.117 355.795 559.518 365.257C556.877 366.239 554.258 367.177 551.638 368.094L549.106 368.945L543.954 370.625L539.479 371.978L535.507 373.156L531.141 374.356C529.809 374.684 528.499 375.055 527.19 375.36C525.88 375.666 524.243 376.08 522.824 376.407C521.405 376.735 520.226 377.018 518.938 377.28C517.65 377.542 515.991 377.869 514.573 378.175L510.534 378.895L504.859 379.812L502.065 380.226C499.271 380.619 496.476 380.968 493.682 381.252C490.888 381.535 488.618 381.71 486.086 381.884H484.143C482.309 381.994 480.476 382.081 478.642 382.124H476.459C474.713 382.124 472.967 382.124 471.22 382.124H469.038C466.724 382.124 464.41 382.124 462.096 381.884H461.594C459.411 381.754 457.228 381.579 455.045 381.404L452.971 381.186C451.182 381.012 449.392 380.815 447.602 380.575L445.877 380.357C443.52 380.03 441.162 379.681 438.805 379.266L437.822 379.07C435.53 378.655 433.26 378.219 430.99 377.739C428.72 377.258 426.384 376.669 424.07 376.08L422.018 375.535L417.849 374.334C415.971 373.789 414.072 373.2 412.195 372.589L409.226 371.607C407.043 370.821 404.751 370.014 402.525 369.141C401.914 368.901 401.281 368.705 400.648 368.443C399.185 367.876 397.723 367.221 396.282 366.61L392.964 365.213C391.414 364.537 389.864 363.795 388.314 363.031L385.215 361.591C383.49 360.74 381.766 359.845 380.019 358.951L377.487 357.642C374.911 356.289 372.336 354.849 369.738 353.277C349.466 341.552 335.467 329.791 327.739 317.993C326.468 316.073 325.331 314.068 324.334 311.993C321.484 306.286 319.99 299.998 319.968 293.62L319.728 375.862C319.846 384.57 322.551 393.046 327.499 400.214C335.372 412.186 349.452 423.991 369.738 435.629C372.314 437.113 374.889 438.553 377.465 439.993L379.997 441.28C381.722 442.175 383.468 443.07 385.215 443.921C386.219 444.423 387.245 444.859 388.271 445.339C389.82 446.081 391.392 446.823 392.942 447.521L396.26 448.918C397.744 449.529 399.207 450.183 400.626 450.751L400.931 450.882C401.455 451.1 401.979 451.253 402.503 451.449C404.686 452.322 406.869 453.151 409.183 453.915L412.151 454.897C414.051 455.508 415.928 456.097 417.805 456.642L419.377 457.144L421.974 457.842L424.048 458.388C426.34 458.977 428.654 459.544 430.946 460.046L432.867 460.439C434.504 460.788 436.12 461.094 437.757 461.377L438.783 461.574C440.966 461.945 442.974 462.272 445.091 462.577H445.833L447.558 462.796C449.348 463.036 451.138 463.232 452.95 463.428L455.002 463.625L456.464 463.756C458.123 463.909 459.804 463.996 461.463 464.105H461.965C463.886 464.214 465.807 464.301 467.728 464.345H471.046C472.77 464.345 474.517 464.345 476.263 464.345H478.446H479.646C481.087 464.345 482.528 464.214 484.012 464.127H485.933C488.291 463.974 490.648 463.778 493.006 463.559H493.551C496.324 463.276 499.118 462.927 501.912 462.556L504.75 462.097C506.627 461.814 508.482 461.53 510.381 461.203L511.08 461.094L514.18 460.483C515.664 460.177 517.127 459.915 518.545 459.588C519.964 459.261 521.121 459.021 522.431 458.715L526.797 457.69L530.726 456.664L535.092 455.464C536.423 455.093 537.755 454.678 539.065 454.286C540.374 453.893 542.055 453.413 543.43 452.933L544.653 452.562L548.582 451.253L551.114 450.401C553.734 449.485 556.353 448.547 558.994 447.565C583.6 438.103 607.38 426.623 630.091 413.241C633.002 411.539 635.854 409.844 638.648 408.157H638.757L639.87 407.48L646.637 403.291L649.235 401.61L654.125 398.446L656.941 396.548C658.403 395.566 659.822 394.606 661.306 393.624L664.101 391.682C665.454 390.722 666.786 389.762 668.073 388.802C668.968 388.169 669.842 387.536 670.693 386.881C672.003 385.921 673.247 384.961 674.513 383.979L676.87 382.168C678.202 381.121 679.468 379.986 680.756 379.026L682.611 377.498C684.467 375.949 686.257 374.4 687.96 372.872L690.033 370.996C690.841 370.254 691.583 369.512 692.347 368.814L693.417 367.788C694.901 366.348 696.298 364.908 697.63 363.424L698.503 362.442C699.529 361.307 700.533 360.26 701.472 359.038L702.563 357.707C702.869 357.336 703.196 356.965 703.48 356.594C704.244 355.634 704.942 354.696 705.663 353.736L705.968 353.299C707.038 351.815 708.042 350.332 708.959 348.935C709.483 348.084 710.007 347.233 710.487 346.382C710.705 345.968 710.88 345.597 711.098 345.204C711.316 344.811 711.775 343.916 712.08 343.284C712.386 342.651 712.91 341.538 713.281 340.665C713.652 339.792 713.849 339.421 714.089 338.789C714.329 338.156 714.351 338.199 714.46 337.894C714.853 336.89 715.18 335.886 715.486 334.883C715.922 333.486 716.272 332.09 716.555 330.715C716.609 330.543 716.653 330.368 716.686 330.191C716.686 329.929 716.686 329.667 716.817 329.406C716.948 328.751 717.036 328.096 717.123 327.442C717.21 326.787 717.254 326.482 717.298 326.002C717.341 325.522 717.407 324.692 717.45 324.038C717.45 323.732 717.45 323.427 717.45 323.121C717.45 322.816 717.45 322.423 717.45 322.052L717.669 239.832C717.669 240.486 717.669 241.163 717.669 241.817" fill="#492A85"/>
<path d="M688.396 290.456C673.844 303.461 654.576 316.939 630.593 330.889C607.889 344.271 584.117 355.752 559.518 365.213C538.371 373.365 516.256 378.742 493.726 381.208C472.852 383.388 451.765 382.239 431.252 377.804C409.68 372.926 389 364.717 369.956 353.474C349.684 341.749 335.685 329.988 327.957 318.19C320.23 306.392 318.265 294.216 322.064 281.662C325.833 269.297 334.928 256.612 349.35 243.607C363.771 230.601 383.301 216.934 407.938 202.605C430.587 189.173 454.326 177.67 478.904 168.216C500.163 160.209 522.363 154.966 544.958 152.614C566.118 150.426 587.491 151.649 608.262 156.236C629.389 161.111 649.653 169.167 668.357 180.13C689.153 192.131 703.262 204.024 710.683 215.807C714.259 221.105 716.586 227.145 717.49 233.472C718.394 239.799 717.85 246.248 715.901 252.335C712.102 264.7 702.934 277.392 688.396 290.412V290.456ZM474.473 327.093C494.963 322.045 522.795 309.309 557.969 288.885C593.404 268.3 615.335 252.16 623.761 240.464C632.187 228.768 629.407 218.906 615.422 210.875C601.626 202.904 584.592 201.362 564.321 206.249C544.049 211.137 516.086 223.939 480.432 244.654C445.506 264.933 423.735 281.022 415.12 292.921C406.505 304.821 409.103 314.749 422.913 322.707C436.753 330.693 453.925 332.148 474.429 327.071" fill="#7945DC"/>
<path d="M925.523 417.038L925.283 499.258L754.625 513.813L754.865 431.592L925.523 417.038Z" fill="#653AB8"/>
<path d="M776.323 503.71L776.083 585.952L649.17 512.7L649.41 430.479L776.323 503.71Z" fill="#4B2B89"/>
<path d="M1066.15 416.361L1065.9 498.604L897.626 596.339L897.866 514.118L1066.15 416.361Z" fill="#6C3EC5"/>
<path d="M885.227 566.575L884.987 648.796L846.044 626.32L846.263 544.1L885.227 566.575Z" fill="#4B2B89"/>
<path d="M936.831 536.594L936.591 618.814L884.987 648.796L885.227 566.575L936.831 536.594Z" fill="#6C3EC5"/>
<path d="M778.702 583.333L778.484 665.554L708.522 625.186L708.762 542.965L778.702 583.333Z" fill="#4B2B89"/>
<path d="M846.263 544.1L846.044 626.32L778.462 665.554L778.702 583.333L846.263 544.1Z" fill="#6C3EC5"/>
<path d="M897.888 514.184L936.831 536.681L885.227 566.553L846.285 544.078L778.724 583.355L708.762 542.987L776.323 503.71L649.41 430.457L702.934 399.363L993.87 374.64L1066.15 416.361L897.888 514.184ZM827.926 473.815L925.545 417.081L754.887 431.614L827.926 473.772" fill="#7945DC"/>
<path d="M801.47 496.443C806.101 504.679 811.715 512.321 818.191 519.202C820.003 521.384 833.907 515.995 830.982 514.489C828.057 512.983 818.977 500.306 814.414 491.861C810.59 481.745 807.34 471.422 804.679 460.941C801.819 450.598 799.352 435.389 797.257 428.21C795.161 421.031 790.883 418.369 786.604 417.3C781.606 416.143 778.375 417.518 779.27 423.562C780.885 434.211 789.18 475.474 801.47 496.356" fill="#FFCEA9"/>
<path d="M793.502 658.2C797.868 661.714 804.155 658.506 804.417 658.833C809.485 663.524 814.797 667.946 820.33 672.078C823.015 674.26 827.206 677.01 826.464 681.09C825.089 688.335 813.366 686.109 809.001 683.883C804.635 681.658 801.033 677.992 796.886 675.395C793.917 673.562 791.014 672.624 790.533 668.849C790.271 666.667 792.585 658.091 793.371 658.179" fill="#2B2A30"/>
<path d="M790.73 667.321C791.297 670.9 794.179 671.882 797.126 673.715C801.339 676.333 805.05 680.108 809.437 682.334C813.825 684.56 823.604 686.436 826.464 681.243C824.914 688.247 813.367 686.044 809.132 683.84C804.897 681.636 801.164 677.948 797.017 675.351C794.048 673.518 791.145 672.558 790.686 668.805C790.624 668.305 790.624 667.799 790.686 667.3" fill="#BF4B4B"/>
<path d="M837.226 632.976C841.591 636.489 849.1 632.648 849.406 632.976C853.89 637.525 858.635 641.809 863.617 645.806C866.323 647.988 870.515 650.76 869.751 654.818C868.397 662.085 856.762 659.837 852.287 657.611C847.813 655.386 844.298 651.72 840.151 649.145C837.182 647.29 834.279 646.352 833.82 642.599C833.536 640.417 836.374 632.888 837.138 632.976" fill="#2B2A30"/>
<path d="M834.038 641.617C834.606 645.195 837.487 646.177 840.412 648.01C844.647 650.629 848.358 654.404 852.746 656.629C857.133 658.855 866.913 660.71 869.772 655.538C868.223 662.543 856.784 660.339 852.44 658.135C848.096 655.931 844.473 652.222 840.325 649.647C837.356 647.814 834.431 646.854 833.973 643.101C833.912 642.601 833.912 642.095 833.973 641.595" fill="#BF4B4B"/>
<path d="M735.83 519.988C731.006 549.839 744.322 560.967 761.566 567.317C773.922 571.878 791.669 578.904 791.669 578.904C791.669 578.904 791.428 585.45 791.297 600.157C791.166 613.097 792.869 660.361 792.869 660.361C792.869 660.361 800.029 664.07 806.076 660.208C806.076 660.208 813.039 624.007 814.502 607.685C816.51 585.537 819.915 571.048 818.867 566.226C817.863 562.036 793.655 550.122 785.971 543.751L836.702 560.749C835.691 566.248 835.194 571.829 835.217 577.42C835.697 595.008 836.658 633.041 836.658 633.041C836.658 633.041 843.621 638.06 849.559 633.041C849.559 633.041 862.329 557.738 860.779 547.766C859.294 538.317 814.589 518.984 806.73 512.329C805.334 511.224 803.718 510.429 801.991 509.996C800.263 509.563 798.464 509.503 796.711 509.819L735.83 519.988Z" fill="#E26D6D"/>
<path d="M857.483 532.426L823.386 512.787C823.087 512.615 822.749 512.524 822.404 512.524C822.059 512.524 821.72 512.615 821.421 512.787L761.567 547.264L796.624 567.492L857.483 532.426Z" fill="#F4F4F4"/>
<path d="M795.118 560.269L792.52 561.753C792.302 561.884 792.323 562.102 792.52 562.233L795.008 563.673C795.137 563.738 795.279 563.772 795.423 563.772C795.567 563.772 795.709 563.738 795.838 563.673L798.436 562.189C798.654 562.058 798.61 561.84 798.436 561.709L795.969 560.269C795.84 560.204 795.698 560.17 795.554 560.17C795.41 560.17 795.268 560.204 795.139 560.269" fill="#3A2C6D"/>
<path d="M798.785 558.131L796.187 559.636C795.969 559.767 796.013 559.985 796.187 560.116L798.676 561.556C798.8 561.621 798.939 561.655 799.079 561.655C799.22 561.655 799.359 561.621 799.483 561.556L802.081 560.051C802.299 560.051 802.277 559.723 802.081 559.593L799.592 558.152C799.463 558.089 799.322 558.056 799.178 558.056C799.034 558.056 798.892 558.089 798.763 558.152" fill="#3A2C6D"/>
<path d="M802.518 555.992L799.92 557.498C799.702 557.498 799.723 557.825 799.92 557.978L802.408 559.396C802.537 559.46 802.679 559.493 802.823 559.493C802.967 559.493 803.109 559.46 803.238 559.396L805.836 557.891C806.054 557.76 806.01 557.563 805.836 557.411L803.369 555.992C803.241 555.923 803.099 555.887 802.954 555.887C802.809 555.887 802.667 555.923 802.539 555.992" fill="#3A2C6D"/>
<path d="M806.141 553.897L803.544 555.403C803.325 555.512 803.369 555.73 803.544 555.861L806.032 557.301C806.159 557.36 806.296 557.39 806.436 557.39C806.575 557.39 806.713 557.36 806.84 557.301L809.437 555.796C809.656 555.665 809.634 555.447 809.437 555.316L806.949 553.876C806.82 553.81 806.678 553.776 806.534 553.776C806.39 553.776 806.248 553.81 806.119 553.876" fill="#3A2C6D"/>
<path d="M809.83 551.781L807.233 553.265C807.014 553.396 807.036 553.614 807.233 553.745L809.721 555.185C809.85 555.25 809.992 555.284 810.136 555.284C810.28 555.284 810.422 555.25 810.551 555.185L813.148 553.701C813.367 553.57 813.323 553.352 813.148 553.221L810.682 551.781C810.553 551.716 810.411 551.682 810.267 551.682C810.123 551.682 809.981 551.716 809.852 551.781" fill="#3A2C6D"/>
<path d="M813.497 549.642L810.9 551.148C810.681 551.279 810.725 551.475 810.9 551.628L813.388 553.046C813.512 553.115 813.651 553.151 813.792 553.151C813.933 553.151 814.072 553.115 814.196 553.046L816.794 551.541C817.012 551.432 816.99 551.213 816.794 551.061L814.305 549.642C814.176 549.579 814.034 549.546 813.89 549.546C813.747 549.546 813.605 549.579 813.476 549.642" fill="#3A2C6D"/>
<path d="M817.187 547.526L814.589 549.031C814.371 549.031 814.392 549.359 814.589 549.511L817.077 550.93C817.206 550.993 817.348 551.026 817.492 551.026C817.636 551.026 817.778 550.993 817.907 550.93L820.505 549.424C820.723 549.293 820.679 549.097 820.505 548.944L818.038 547.526C817.91 547.457 817.768 547.421 817.623 547.421C817.478 547.421 817.336 547.457 817.208 547.526" fill="#3A2C6D"/>
<path d="M820.854 545.409L818.322 546.915C818.125 547.046 818.147 547.264 818.322 547.395L820.81 548.835C820.939 548.9 821.081 548.934 821.225 548.934C821.369 548.934 821.511 548.9 821.64 548.835L824.237 547.351C824.434 547.22 824.412 547.002 824.237 546.871L821.749 545.431C821.62 545.366 821.478 545.332 821.334 545.332C821.19 545.332 821.048 545.366 820.919 545.431" fill="#3A2C6D"/>
<path d="M824.543 543.271L821.945 544.776C821.727 544.907 821.749 545.125 821.945 545.256L824.434 546.696C824.562 546.762 824.704 546.796 824.849 546.796C824.993 546.796 825.135 546.762 825.263 546.696L827.861 545.191C828.079 545.082 828.036 544.863 827.861 544.733L825.394 543.292C825.265 543.229 825.123 543.196 824.979 543.196C824.836 543.196 824.694 543.229 824.565 543.292" fill="#3A2C6D"/>
<path d="M828.21 541.154L825.613 542.66C825.416 542.769 825.438 542.987 825.613 543.14L828.101 544.558C828.23 544.622 828.372 544.655 828.516 544.655C828.66 544.655 828.801 544.622 828.931 544.558L831.528 543.052C831.725 542.943 831.703 542.725 831.528 542.572L829.04 541.154C828.912 541.085 828.77 541.049 828.625 541.049C828.48 541.049 828.338 541.085 828.21 541.154Z" fill="#3A2C6D"/>
<path d="M831.899 539.037L829.302 540.521C829.083 540.652 829.105 540.87 829.302 541.001L831.79 542.442C831.92 542.501 832.062 542.531 832.205 542.531C832.348 542.531 832.489 542.501 832.62 542.442L835.217 540.936C835.436 540.805 835.392 540.587 835.217 540.456L832.751 539.016C832.622 538.95 832.48 538.917 832.336 538.917C832.192 538.917 832.05 538.95 831.921 539.016" fill="#3A2C6D"/>
<path d="M835.567 536.899L832.969 538.405C832.772 538.536 832.794 538.754 832.969 538.885L835.457 540.325C835.586 540.39 835.728 540.424 835.872 540.424C836.016 540.424 836.158 540.39 836.287 540.325L838.885 538.841C839.081 538.71 839.059 538.492 838.885 538.361L836.396 536.921C836.266 536.862 836.124 536.831 835.981 536.831C835.838 536.831 835.697 536.862 835.567 536.921" fill="#3A2C6D"/>
<path d="M839.256 534.782L836.658 536.288C836.44 536.419 836.461 536.615 836.658 536.768L839.146 538.186C839.274 538.255 839.416 538.291 839.561 538.291C839.706 538.291 839.849 538.255 839.976 538.186L842.574 536.681C842.792 536.572 842.748 536.353 842.574 536.201L840.107 534.782C839.978 534.719 839.836 534.686 839.692 534.686C839.548 534.686 839.406 534.719 839.277 534.782" fill="#3A2C6D"/>
<path d="M844.691 531.64L840.325 534.171C840.107 534.171 840.151 534.499 840.325 534.651L842.814 536.07C842.939 536.133 843.077 536.166 843.218 536.166C843.358 536.166 843.496 536.133 843.621 536.07L847.987 533.539C848.184 533.429 848.162 533.211 847.987 533.058L845.499 531.64C845.371 531.571 845.229 531.535 845.084 531.535C844.939 531.535 844.797 531.571 844.669 531.64" fill="#3A2C6D"/>
<path d="M796.995 555.054L794.397 556.559C794.201 556.669 794.223 556.887 794.397 557.04L796.886 558.458C797.015 558.521 797.157 558.554 797.3 558.554C797.444 558.554 797.586 558.521 797.715 558.458L800.313 556.952C800.509 556.821 800.487 556.625 800.313 556.472L797.824 555.054C797.697 554.985 797.554 554.949 797.41 554.949C797.265 554.949 797.122 554.985 796.995 555.054Z" fill="#3A2C6D"/>
<path d="M800.684 552.937L798.086 554.421C797.868 554.552 797.912 554.77 798.086 554.901L800.553 556.341C800.681 556.407 800.824 556.44 800.968 556.44C801.112 556.44 801.254 556.407 801.382 556.341L803.98 554.858C804.198 554.727 804.177 554.508 803.98 554.377L801.492 552.937C801.363 552.872 801.221 552.838 801.077 552.838C800.933 552.838 800.791 552.872 800.662 552.937" fill="#3A2C6D"/>
<path d="M804.373 550.799L801.775 552.304C801.557 552.304 801.579 552.632 801.775 552.784L804.242 554.203C804.369 554.272 804.512 554.307 804.657 554.307C804.802 554.307 804.944 554.272 805.072 554.203L807.669 552.697C807.887 552.588 807.866 552.37 807.669 552.217L805.224 550.842C805.095 550.779 804.953 550.746 804.81 550.746C804.666 550.746 804.524 550.779 804.395 550.842" fill="#3A2C6D"/>
<path d="M808.062 548.682L805.464 550.166C805.246 550.297 805.268 550.515 805.464 550.646L807.953 552.086C808.081 552.151 808.224 552.185 808.368 552.185C808.512 552.185 808.654 552.151 808.782 552.086L811.38 550.602C811.598 550.471 811.555 550.253 811.38 550.122L808.913 548.682C808.785 548.617 808.643 548.583 808.499 548.583C808.355 548.583 808.212 548.617 808.084 548.682" fill="#3A2C6D"/>
<path d="M811.773 546.566L809.175 548.071C808.957 548.18 809.001 548.399 809.175 548.551L811.642 549.97C811.771 550.033 811.913 550.066 812.057 550.066C812.201 550.066 812.342 550.033 812.471 549.97L815.069 548.464C815.287 548.333 815.266 548.137 815.069 547.984L812.581 546.566C812.453 546.497 812.311 546.461 812.166 546.461C812.021 546.461 811.879 546.497 811.751 546.566" fill="#3A2C6D"/>
<path d="M815.397 544.449L812.799 545.933C812.581 546.064 812.624 546.282 812.799 546.413L815.266 547.853C815.394 547.918 815.536 547.952 815.68 547.952C815.825 547.952 815.967 547.918 816.095 547.853L818.693 546.369C818.911 546.238 818.889 546.02 818.693 545.889L816.204 544.449C816.076 544.384 815.934 544.35 815.789 544.35C815.645 544.35 815.503 544.384 815.375 544.449" fill="#3A2C6D"/>
<path d="M819.086 542.311L816.488 543.816C816.27 543.925 816.292 544.143 816.488 544.296L818.977 545.715C819.106 545.778 819.247 545.811 819.391 545.811C819.535 545.811 819.677 545.778 819.806 545.715L822.404 544.209C822.622 544.209 822.578 543.882 822.404 543.729L819.937 542.311C819.81 542.242 819.667 542.206 819.522 542.206C819.377 542.206 819.235 542.242 819.108 542.311" fill="#3A2C6D"/>
<path d="M822.687 540.194L820.09 541.678C819.872 541.809 819.893 542.027 820.09 542.158L822.578 543.598C822.707 543.663 822.849 543.697 822.993 543.697C823.137 543.697 823.279 543.663 823.408 543.598L826.005 542.114C826.224 541.983 826.18 541.765 826.005 541.634L823.539 540.194C823.41 540.129 823.268 540.095 823.124 540.095C822.98 540.095 822.838 540.129 822.709 540.194" fill="#3A2C6D"/>
<path d="M826.442 538.055L823.844 539.561C823.648 539.692 823.67 539.888 823.844 540.041L826.333 541.459C826.46 541.528 826.603 541.564 826.748 541.564C826.892 541.564 827.035 541.528 827.162 541.459L829.76 539.954C829.956 539.845 829.935 539.627 829.76 539.474L827.272 538.186C827.143 538.123 827.001 538.09 826.857 538.09C826.713 538.09 826.571 538.123 826.442 538.186" fill="#3A2C6D"/>
<path d="M830.131 536.004L827.533 537.488C827.315 537.619 827.359 537.837 827.533 537.968L830.022 539.408C830.147 539.473 830.285 539.507 830.426 539.507C830.566 539.507 830.705 539.473 830.83 539.408L833.427 537.925C833.646 537.794 833.624 537.575 833.427 537.444L830.939 536.004C830.81 535.939 830.668 535.905 830.524 535.905C830.38 535.905 830.238 535.939 830.109 536.004" fill="#3A2C6D"/>
<path d="M833.82 533.822L831.223 535.328C831.004 535.459 831.026 535.655 831.223 535.808L833.689 537.248C833.818 537.313 833.96 537.347 834.104 537.347C834.248 537.347 834.39 537.313 834.519 537.248L837.116 535.743C837.335 535.633 837.313 535.415 837.116 535.262L834.65 533.844C834.521 533.781 834.379 533.748 834.235 533.748C834.091 533.748 833.949 533.781 833.82 533.844" fill="#3A2C6D"/>
<path d="M837.509 531.64L834.912 533.146C834.693 533.255 834.715 533.473 834.912 533.604L837.378 535.044C837.509 535.103 837.65 535.134 837.793 535.134C837.936 535.134 838.078 535.103 838.208 535.044L840.805 533.539C841.024 533.408 841.002 533.189 840.805 533.059L838.339 531.618C838.21 531.553 838.068 531.519 837.924 531.519C837.78 531.519 837.638 531.553 837.509 531.618" fill="#3A2C6D"/>
<path d="M793.328 557.192L788.962 559.702C788.765 559.833 788.787 560.051 788.962 560.182L791.45 561.622C791.579 561.687 791.721 561.721 791.865 561.721C792.009 561.721 792.151 561.687 792.28 561.622L796.646 559.112C796.842 558.982 796.82 558.763 796.646 558.632L794.157 557.192C794.032 557.127 793.894 557.093 793.753 557.093C793.613 557.093 793.474 557.127 793.349 557.192" fill="#3A2C6D"/>
<path d="M844.516 531.509L841.919 533.015C841.799 533.068 841.668 533.096 841.537 533.096C841.405 533.096 841.275 533.068 841.155 533.015L838.535 531.487C838.477 531.487 838.422 531.464 838.381 531.423C838.34 531.383 838.317 531.327 838.317 531.269C838.317 531.211 838.34 531.156 838.381 531.115C838.422 531.074 838.477 531.051 838.535 531.051L838.732 530.92C838.928 530.811 838.928 530.636 838.732 530.505L835.959 528.913C835.901 528.913 835.846 528.89 835.805 528.849C835.764 528.808 835.741 528.752 835.741 528.694C835.741 528.636 835.764 528.581 835.805 528.54C835.846 528.499 835.901 528.476 835.959 528.476L837.618 527.516C837.737 527.456 837.868 527.426 838 527.426C838.133 527.426 838.264 527.456 838.382 527.516L840.98 529.022L841.504 529.327L841.897 529.545L842.29 529.764L844.473 531.051C844.691 531.182 844.691 531.378 844.473 531.509" fill="#3A2C6D"/>
<path d="M780.863 552.021L778.266 553.526C778.047 553.635 778.091 553.854 778.266 554.006L780.732 555.425C780.861 555.488 781.003 555.521 781.147 555.521C781.291 555.521 781.433 555.488 781.562 555.425L784.159 553.919C784.378 553.788 784.356 553.592 784.159 553.439L781.671 552.021C781.544 551.952 781.401 551.916 781.256 551.916C781.111 551.916 780.969 551.952 780.841 552.021" fill="#3A2C6D"/>
<path d="M784.531 549.904L781.933 551.41C781.715 551.519 781.758 551.737 781.933 551.89L784.4 553.308C784.529 553.372 784.67 553.405 784.814 553.405C784.958 553.405 785.1 553.372 785.229 553.308L787.827 551.802C788.045 551.693 788.023 551.475 787.827 551.322L785.338 549.904C785.211 549.835 785.068 549.799 784.923 549.799C784.779 549.799 784.636 549.835 784.509 549.904" fill="#3A2C6D"/>
<path d="M788.198 547.787L785.6 549.293C785.382 549.402 785.425 549.62 785.6 549.773L788.089 551.191C788.214 551.255 788.352 551.288 788.492 551.288C788.633 551.288 788.771 551.255 788.896 551.191L791.494 549.686C791.712 549.577 791.69 549.359 791.494 549.206L789.005 547.787C788.878 547.719 788.736 547.683 788.591 547.683C788.446 547.683 788.303 547.719 788.176 547.787" fill="#3A2C6D"/>
<path d="M819.435 529.764L816.837 531.269C816.619 531.378 816.663 531.596 816.837 531.727L819.304 533.168C819.433 533.231 819.575 533.264 819.719 533.264C819.863 533.264 820.004 533.231 820.133 533.168L822.731 531.662C822.949 531.531 822.928 531.335 822.731 531.182L820.243 529.764C820.115 529.695 819.973 529.659 819.828 529.659C819.683 529.659 819.541 529.695 819.413 529.764" fill="#3A2C6D"/>
<path d="M823.102 527.647L820.505 529.153C820.286 529.262 820.33 529.48 820.505 529.611L822.971 531.051C823.1 531.115 823.242 531.148 823.386 531.148C823.53 531.148 823.672 531.115 823.801 531.051L826.398 529.545C826.617 529.414 826.595 529.196 826.398 529.065L823.91 527.625C823.781 527.56 823.639 527.526 823.495 527.526C823.351 527.526 823.209 527.56 823.08 527.625" fill="#3A2C6D"/>
<path d="M826.769 525.53L824.172 527.036C823.953 527.145 823.997 527.363 824.172 527.516L826.638 528.934C826.767 528.998 826.909 529.031 827.053 529.031C827.197 529.031 827.339 528.998 827.468 528.934L830.066 527.429C830.284 527.298 830.262 527.101 830.066 526.949L827.577 525.53C827.45 525.462 827.307 525.426 827.162 525.426C827.018 525.426 826.875 525.462 826.748 525.53" fill="#3A2C6D"/>
<path d="M830.437 523.414L827.839 524.919C827.621 525.029 827.664 525.247 827.839 525.378L830.306 526.818C830.435 526.881 830.577 526.914 830.72 526.914C830.864 526.914 831.006 526.881 831.135 526.818L833.733 525.312C833.951 525.181 833.929 524.963 833.733 524.832L831.244 523.414C831.117 523.345 830.974 523.309 830.83 523.309C830.685 523.309 830.542 523.345 830.415 523.414" fill="#3A2C6D"/>
<path d="M792.804 545.125L789.267 547.177C789.049 547.286 789.093 547.504 789.267 547.657L791.734 549.075C791.863 549.138 792.005 549.172 792.149 549.172C792.293 549.172 792.435 549.138 792.564 549.075L796.122 547.024C796.318 546.893 796.296 546.696 796.122 546.544L793.633 545.125C793.506 545.057 793.363 545.021 793.218 545.021C793.074 545.021 792.931 545.057 792.804 545.125Z" fill="#3A2C6D"/>
<path d="M815.768 531.88L812.231 533.931C812.013 534.04 812.035 534.259 812.231 534.411L814.72 535.83C814.849 535.893 814.991 535.926 815.135 535.926C815.279 535.926 815.42 535.893 815.549 535.83L819.086 533.779C819.304 533.648 819.282 533.451 819.086 533.299L816.597 531.88C816.47 531.811 816.327 531.775 816.182 531.775C816.038 531.775 815.895 531.811 815.768 531.88Z" fill="#3A2C6D"/>
<path d="M811.162 534.542L793.873 544.514C793.677 544.623 793.699 544.842 793.873 544.994L796.362 546.413C796.491 546.476 796.633 546.509 796.777 546.509C796.92 546.509 797.062 546.476 797.191 546.413L814.458 536.441C814.676 536.31 814.633 536.113 814.458 535.961L811.991 534.542C811.864 534.473 811.721 534.438 811.577 534.438C811.432 534.438 811.289 534.473 811.162 534.542Z" fill="#3A2C6D"/>
<path d="M794.441 552.413L791.843 553.919C791.625 554.05 791.647 554.246 791.843 554.399L794.31 555.817C794.437 555.886 794.58 555.922 794.725 555.922C794.869 555.922 795.012 555.886 795.139 555.817L797.737 554.312C797.955 554.203 797.934 553.985 797.737 553.832L795.27 552.413C795.141 552.35 794.999 552.317 794.856 552.317C794.712 552.317 794.57 552.35 794.441 552.413Z" fill="#3A2C6D"/>
<path d="M798.108 550.297L795.51 551.803C795.314 551.912 795.336 552.13 795.51 552.283L797.999 553.701C798.124 553.764 798.262 553.797 798.403 553.797C798.543 553.797 798.681 553.764 798.807 553.701L801.404 552.195C801.623 552.086 801.601 551.868 801.404 551.715L798.916 550.297C798.788 550.228 798.646 550.192 798.501 550.192C798.356 550.192 798.214 550.228 798.086 550.297" fill="#3A2C6D"/>
<path d="M801.775 548.18L799.2 549.686C798.981 549.795 799.003 550.013 799.2 550.166L801.688 551.584C801.817 551.648 801.959 551.681 802.103 551.681C802.247 551.681 802.389 551.648 802.518 551.584L805.115 550.079C805.312 549.948 805.29 549.751 805.115 549.599L802.627 548.18C802.499 548.111 802.357 548.075 802.212 548.075C802.067 548.075 801.925 548.111 801.797 548.18" fill="#3A2C6D"/>
<path d="M805.464 546.064L802.867 547.548C802.649 547.678 802.67 547.897 802.867 548.028L805.333 549.468C805.462 549.533 805.604 549.567 805.748 549.567C805.892 549.567 806.034 549.533 806.163 549.468L808.761 547.984C808.979 547.853 808.957 547.635 808.761 547.504L806.294 546.064C806.165 545.999 806.023 545.965 805.879 545.965C805.735 545.965 805.593 545.999 805.464 546.064Z" fill="#3A2C6D"/>
<path d="M809.132 543.947L806.534 545.431C806.316 545.562 806.359 545.78 806.534 545.911L809.001 547.351C809.129 547.416 809.271 547.45 809.415 547.45C809.56 547.45 809.702 547.416 809.83 547.351L812.428 545.867C812.646 545.736 812.624 545.518 812.428 545.387L809.939 543.947C809.811 543.882 809.669 543.848 809.525 543.848C809.38 543.848 809.238 543.882 809.11 543.947" fill="#3A2C6D"/>
<path d="M812.799 541.809L810.201 543.314C810.005 543.445 810.027 543.663 810.201 543.794L812.69 545.234C812.818 545.3 812.96 545.334 813.105 545.334C813.249 545.334 813.391 545.3 813.519 545.234L816.117 543.751C816.313 543.62 816.292 543.401 816.117 543.271L813.628 541.83C813.498 541.771 813.357 541.741 813.214 541.741C813.071 541.741 812.929 541.771 812.799 541.83" fill="#3A2C6D"/>
<path d="M816.488 539.692L813.89 541.198C813.672 541.329 813.694 541.525 813.89 541.678L816.357 543.096C816.485 543.165 816.627 543.201 816.772 543.201C816.917 543.201 817.059 543.165 817.187 543.096L819.784 541.59C820.003 541.481 819.981 541.263 819.784 541.11L817.318 539.692C817.189 539.628 817.047 539.595 816.903 539.595C816.759 539.595 816.617 539.628 816.488 539.692Z" fill="#3A2C6D"/>
<path d="M820.155 537.575L817.558 539.081C817.339 539.081 817.383 539.408 817.558 539.561L820.024 540.979C820.153 541.043 820.295 541.076 820.439 541.076C820.583 541.076 820.725 541.043 820.854 540.979L823.451 539.474C823.67 539.343 823.648 539.147 823.451 538.994L820.963 537.575C820.836 537.507 820.693 537.471 820.548 537.471C820.403 537.471 820.261 537.507 820.133 537.575" fill="#3A2C6D"/>
<path d="M823.823 535.459L821.225 536.964C821.028 537.074 821.05 537.292 821.225 537.423L823.713 538.863C823.842 538.926 823.984 538.959 824.128 538.959C824.272 538.959 824.414 538.926 824.543 538.863L827.141 537.357C827.337 537.226 827.315 537.03 827.141 536.877L824.652 535.437C824.524 535.372 824.381 535.338 824.237 535.338C824.093 535.338 823.951 535.372 823.823 535.437" fill="#3A2C6D"/>
<path d="M827.512 533.342L824.914 534.826C824.696 534.957 824.718 535.175 824.914 535.306L827.403 536.746C827.531 536.811 827.673 536.845 827.817 536.845C827.961 536.845 828.104 536.811 828.232 536.746L830.83 535.262C831.048 535.131 831.004 534.913 830.83 534.782L828.363 533.342C828.234 533.277 828.092 533.243 827.948 533.243C827.804 533.243 827.662 533.277 827.533 533.342" fill="#3A2C6D"/>
<path d="M831.179 531.204L828.581 532.709C828.363 532.84 828.407 533.059 828.581 533.189L831.048 534.63C831.176 534.695 831.319 534.729 831.463 534.729C831.607 534.729 831.749 534.695 831.877 534.63L834.475 533.146C834.693 533.015 834.671 532.797 834.475 532.666L831.987 531.226C831.856 531.167 831.715 531.136 831.572 531.136C831.429 531.136 831.287 531.167 831.157 531.226" fill="#3A2C6D"/>
<path d="M834.846 529.087L832.249 530.593C832.052 530.724 832.074 530.942 832.249 531.073L834.737 532.513C834.866 532.578 835.008 532.612 835.152 532.612C835.296 532.612 835.438 532.578 835.566 532.513L838.164 531.007C838.361 530.898 838.339 530.68 838.164 530.549L835.676 529.109C835.547 529.045 835.405 529.012 835.261 529.012C835.117 529.012 834.975 529.045 834.846 529.109" fill="#3A2C6D"/>
<path d="M790.774 554.552L785.382 557.65C785.185 557.76 785.207 557.978 785.382 558.131L787.87 559.549C787.999 559.612 788.141 559.645 788.285 559.645C788.429 559.645 788.571 559.612 788.7 559.549L794.07 556.45C794.266 556.319 794.244 556.101 794.07 555.97L791.603 554.53C791.475 554.465 791.332 554.431 791.188 554.431C791.044 554.431 790.902 554.465 790.774 554.53" fill="#3A2C6D"/>
<path d="M789.049 551.41L786.451 552.915C786.233 553.046 786.255 553.243 786.451 553.395L788.918 554.814C789.046 554.883 789.188 554.919 789.333 554.919C789.478 554.919 789.62 554.883 789.748 554.814L792.345 553.308C792.564 553.199 792.542 552.981 792.345 552.828L789.879 551.41C789.75 551.346 789.608 551.313 789.464 551.313C789.32 551.313 789.178 551.346 789.049 551.41Z" fill="#3A2C6D"/>
<path d="M792.716 549.293L790.119 550.799C789.922 550.908 789.944 551.126 790.119 551.279L792.607 552.697C792.736 552.761 792.878 552.794 793.022 552.794C793.166 552.794 793.308 552.761 793.437 552.697L796.013 551.192C796.231 551.061 796.209 550.864 796.013 550.711L793.524 549.293C793.397 549.224 793.254 549.188 793.109 549.188C792.965 549.188 792.822 549.224 792.695 549.293" fill="#3A2C6D"/>
<path d="M796.493 547.177L793.895 548.682C793.677 548.791 793.699 549.009 793.895 549.162L796.384 550.581C796.513 550.644 796.655 550.677 796.798 550.677C796.942 550.677 797.084 550.644 797.213 550.581L799.811 549.075C800.029 548.944 799.985 548.748 799.811 548.595L797.344 547.177C797.217 547.108 797.074 547.072 796.929 547.072C796.785 547.072 796.642 547.108 796.515 547.177" fill="#3A2C6D"/>
<path d="M800.073 545.06L797.475 546.544C797.257 546.675 797.279 546.893 797.475 547.024L799.942 548.464C800.07 548.529 800.212 548.563 800.357 548.563C800.501 548.563 800.643 548.529 800.771 548.464L803.369 546.98C803.587 546.849 803.565 546.631 803.369 546.5L800.902 545.06C800.774 544.995 800.632 544.961 800.487 544.961C800.343 544.961 800.201 544.995 800.073 545.06Z" fill="#3A2C6D"/>
<path d="M803.74 542.943L801.142 544.427C800.924 544.558 800.968 544.776 801.142 544.907L803.609 546.347C803.738 546.413 803.88 546.447 804.024 546.447C804.168 546.447 804.31 546.413 804.439 546.347L807.036 544.864C807.254 544.733 807.233 544.514 807.036 544.384L804.548 542.943C804.419 542.878 804.277 542.844 804.133 542.844C803.989 542.844 803.847 542.878 803.718 542.943" fill="#3A2C6D"/>
<path d="M807.407 540.805L804.81 542.311C804.613 542.441 804.635 542.66 804.81 542.791L807.298 544.231C807.427 544.296 807.569 544.33 807.713 544.33C807.857 544.33 807.999 544.296 808.128 544.231L810.725 542.747C810.922 542.616 810.9 542.398 810.725 542.267L808.237 540.827C808.106 540.768 807.965 540.737 807.822 540.737C807.679 540.737 807.537 540.768 807.407 540.827" fill="#3A2C6D"/>
<path d="M811.096 538.688L808.499 540.194C808.28 540.325 808.302 540.521 808.499 540.674L810.987 542.092C811.115 542.161 811.257 542.197 811.402 542.197C811.547 542.197 811.689 542.161 811.817 542.092L814.414 540.587C814.633 540.478 814.589 540.259 814.414 540.107L811.948 538.688C811.819 538.625 811.677 538.592 811.533 538.592C811.389 538.592 811.247 538.625 811.118 538.688" fill="#3A2C6D"/>
<path d="M814.764 536.572L812.166 538.077C811.948 538.186 811.991 538.405 812.166 538.557L814.633 539.976C814.762 540.039 814.904 540.072 815.047 540.072C815.191 540.072 815.333 540.039 815.462 539.976L818.06 538.47C818.278 538.339 818.256 538.143 818.06 537.99L815.571 536.572C815.444 536.503 815.301 536.467 815.156 536.467C815.012 536.467 814.869 536.503 814.742 536.572" fill="#3A2C6D"/>
<path d="M818.431 534.455L815.833 535.961C815.637 535.961 815.658 536.288 815.833 536.441L818.322 537.859C818.451 537.923 818.593 537.956 818.736 537.956C818.88 537.956 819.022 537.923 819.151 537.859L821.727 536.353C821.945 536.223 821.923 536.026 821.727 535.873L819.238 534.455C819.111 534.386 818.969 534.35 818.824 534.35C818.679 534.35 818.536 534.386 818.409 534.455" fill="#3A2C6D"/>
<path d="M822.12 532.339L819.522 533.822C819.304 533.953 819.326 534.171 819.522 534.302L822.011 535.743C822.141 535.802 822.283 535.832 822.426 535.832C822.569 535.832 822.71 535.802 822.84 535.743L825.438 534.237C825.656 534.106 825.613 533.888 825.438 533.757L822.971 532.317C822.843 532.252 822.701 532.218 822.557 532.218C822.412 532.218 822.27 532.252 822.142 532.317" fill="#3A2C6D"/>
<path d="M825.787 530.222L823.19 531.706C822.971 531.837 822.993 532.055 823.19 532.186L825.656 533.626C825.785 533.691 825.927 533.725 826.071 533.725C826.215 533.725 826.357 533.691 826.486 533.626L829.083 532.142C829.302 532.011 829.28 531.793 829.083 531.662L826.617 530.222C826.488 530.157 826.346 530.123 826.202 530.123C826.058 530.123 825.916 530.157 825.787 530.222Z" fill="#3A2C6D"/>
<path d="M833.995 525.465L826.857 529.589C826.638 529.72 826.682 529.938 826.857 530.069L829.323 531.509C829.452 531.574 829.594 531.608 829.738 531.608C829.882 531.608 830.024 531.574 830.153 531.509L837.313 527.385C837.509 527.276 837.487 527.058 837.313 526.905L834.824 525.487C834.695 525.423 834.553 525.39 834.41 525.39C834.266 525.39 834.124 525.423 833.995 525.487" fill="#3A2C6D"/>
<path d="M785.382 553.461L781.824 555.512C781.627 555.643 781.649 555.861 781.824 555.992L784.312 557.432C784.441 557.497 784.583 557.531 784.727 557.531C784.871 557.531 785.013 557.497 785.142 557.432L788.678 555.381C788.896 555.272 788.853 555.054 788.678 554.923L786.211 553.483C786.081 553.424 785.94 553.393 785.797 553.393C785.654 553.393 785.512 553.424 785.382 553.483" fill="#3A2C6D"/>
<path d="M848.402 533.822L796.231 563.935C796.013 564.044 796.034 564.262 796.231 564.415L797.475 565.113C797.604 565.177 797.746 565.21 797.89 565.21C798.034 565.21 798.176 565.177 798.305 565.113L850.476 535.001C850.694 534.87 850.65 534.651 850.476 534.52L849.231 533.8C849.107 533.735 848.968 533.701 848.828 533.701C848.687 533.701 848.548 533.735 848.424 533.8" fill="#3A2C6D"/>
<path d="M787.346 535.11L787.674 535.306L796.689 540.499L812.712 531.248L813.039 531.073L803.696 525.661L787.346 535.11Z" fill="#BFBFBF"/>
<path d="M787.674 535.306L796.689 540.499L812.712 531.248L803.696 526.054L787.674 535.306Z" fill="#E5E5E5"/>
<path d="M761.567 547.264V548.049C761.567 548.627 761.718 549.195 762.005 549.696C762.292 550.197 762.705 550.615 763.204 550.908L794.987 569.237C795.482 569.531 796.048 569.682 796.624 569.674C797.206 569.679 797.779 569.529 798.283 569.237L855.824 536.004C856.328 535.716 856.746 535.3 857.038 534.798C857.329 534.296 857.483 533.726 857.483 533.146V532.36L796.689 567.426L761.567 547.264Z" fill="#E5E5E5"/>
<path d="M797.628 567.994C798.173 568.201 798.757 568.284 799.338 568.239C799.919 568.194 800.483 568.021 800.99 567.732L858.225 534.695C858.72 534.405 859.146 534.01 859.474 533.539C859.801 533.069 860.023 532.532 860.124 531.967L866.345 494.545C866.345 494.327 866.345 494.108 866.345 493.912C866.347 493.396 866.246 492.885 866.047 492.41C865.849 491.934 865.556 491.502 865.188 491.141L805.792 525.53C805.426 525.748 805.112 526.042 804.871 526.392C804.63 526.742 804.467 527.141 804.395 527.56L797.628 567.994Z" fill="#F4F4F4"/>
<path d="M796.689 567.492L797.082 567.732L797.628 567.994L804.395 527.56C804.467 527.141 804.63 526.742 804.871 526.392C805.112 526.042 805.426 525.748 805.792 525.53L865.276 491.206C865.043 490.967 864.779 490.762 864.49 490.595L804.875 525.094C804.508 525.304 804.193 525.594 803.951 525.941C803.709 526.288 803.548 526.684 803.478 527.102L796.689 567.492Z" fill="#E5E5E5"/>
<path d="M753.49 407.633C753.49 407.633 754.21 421.838 753.905 423.104C753.599 424.37 747.356 428.515 745.566 430.021C743.776 431.527 755.389 442.983 761.064 445.579C766.74 448.176 784.64 441.346 785.076 432.487C785.513 423.628 781.998 416.296 779.248 415.903C776.498 415.51 753.599 407.589 753.599 407.589" fill="#FFCEA9"/>
<path d="M751.896 425.548C751.896 425.548 762.221 440.931 776.607 442.372C781.147 438.007 781.562 421.969 775.275 416.885C775.275 416.885 781.06 412.237 785.011 413.132C789.253 415.71 792.411 419.743 793.895 424.479C797.569 435.072 799.292 446.242 798.981 457.45C798.741 472.528 798.981 510.649 798.981 510.649C798.981 510.649 796.798 525.225 783.81 532.469C773.435 538.319 761.221 540.005 749.648 537.183C742.357 535.481 739.65 531.4 737.14 526.098C737.795 515.537 741.964 493.781 740.218 480.471C738.472 467.16 735.634 457.275 734.914 446.518C734.193 435.76 736.332 435.978 741.724 432.16C744.958 429.743 748.357 427.555 751.896 425.613" fill="#F4F4F4"/>
<path d="M768.443 548.049C765.848 546.344 763.15 544.799 760.366 543.423C757.753 542.61 755.378 541.172 753.446 539.234C750.914 536.768 746.767 527.385 743.82 518.264C740.856 507.957 739.675 497.22 740.327 486.515C741.593 473.706 746.199 455.77 747.378 448.394C748.557 441.019 746.155 438.095 742.728 435.302C738.712 432.116 733.145 433.534 730.177 443.855C726.383 458.16 724.186 472.84 723.628 487.628C723.513 498.61 725.209 509.536 728.649 519.966C731.712 528.909 735.854 537.446 740.982 545.387C742.401 547.766 742.859 549.882 745.02 554.748C747.11 559.639 750.353 563.951 754.472 567.317C758.074 569.914 759.798 570.263 760.65 569.761C761.501 569.259 761.479 567.994 759.973 566.619C757.367 564.631 755.148 562.183 753.424 559.396C753.424 559.396 756.568 562.56 758.642 564.306C760.48 565.845 762.513 567.137 764.688 568.146C766.871 569.063 769.731 567.273 768.246 565.855C766.762 564.437 765.212 563.673 762.178 561.12C760.541 559.751 759.076 558.191 757.812 556.472C759.927 558.101 762.168 559.56 764.513 560.836C766.352 561.958 768.472 562.533 770.626 562.495C771.761 562.495 773.114 560.88 771.018 559.374C768.14 557.882 765.45 556.051 763.007 553.919C760.693 551.606 759.384 549.555 760.039 549.555C760.693 549.555 761.96 550.973 764.666 551.737C767.373 552.501 770.276 551.737 770.626 550.319C770.975 548.9 770.866 549.119 768.334 547.853" fill="#FFCEA9"/>
<path d="M785.578 386.445C783.876 375.404 775.93 367.046 764.557 367.679C761.677 367.835 758.855 368.558 756.254 369.805C753.654 371.053 751.324 372.801 749.4 374.949C747.476 377.098 745.995 379.604 745.041 382.326C744.087 385.047 743.679 387.93 743.841 390.809C744.037 394.156 745.001 397.412 746.659 400.326C748.317 403.24 750.625 405.733 753.403 407.611C753.806 409.285 754.391 410.909 755.149 412.455C759.187 417.147 771.368 420.071 774.795 419.569C779.292 418.914 781.715 417.038 783.854 412.128C787.63 403.4 786.452 391.9 785.513 386.445" fill="#FFCEA9"/>
<path d="M753.49 407.611L754.538 397.988C754.538 397.988 746.657 377.629 765.256 381.535C777.524 384.132 780.536 385.245 784.334 377.019C788.132 368.792 774.904 361.373 759.253 363.424C753.887 363.995 748.929 366.55 745.351 370.587C741.773 374.624 739.833 379.852 739.912 385.245C740.327 391.311 741.942 403.552 753.49 407.502" fill="#2B2A30"/>
<path d="M721.663 462.883C721.663 462.883 731.814 472.964 743.82 470.062C745.522 468.906 749.648 445.317 749.648 445.317C749.648 445.317 749.648 432.225 739.629 432.596C729.609 432.967 721.663 462.883 721.663 462.883Z" fill="#EDEDED"/>
<path d="M798.283 443.31C798.283 443.31 803.587 443.048 805.77 439.971C805.377 434.691 798.61 414.637 785.011 413.132C788.709 415.729 791.642 419.271 793.502 423.388C795.613 429.894 797.211 436.555 798.283 443.31Z" fill="#EDEDED"/>
<path d="M136.998 8.6628C139.683 4.29865 160.137 1.52742 166.882 18.8531C169.436 25.3993 169.065 42.2449 171.248 52.8061C173.431 63.3674 178.408 69.3462 180.219 77.9218C182.031 86.4973 179.084 100.834 158.39 103.387C137.697 105.94 121.849 98.6733 116.916 92.0834C111.982 85.4936 111.939 71.5283 116.916 64.0002C121.893 56.472 125.844 50.384 125.647 40.5865L136.998 8.6628Z" fill="#2B2A30"/>
<path d="M150.51 5.76064C150.51 5.76064 135.099 1.39649 125.756 9.66655C122.677 12.5057 120.438 16.1363 119.283 20.1615C118.128 24.1868 118.102 28.452 119.208 32.491C120.452 37.357 122.94 43.9906 126.804 44.3615C130.668 44.7325 150.51 5.76064 150.51 5.76064Z" fill="#2B2A30"/>
<path d="M156.404 47.7001C156.404 47.7001 155.4 64.873 155.706 66.1168C156.011 67.3606 162.451 68.6043 164.262 70.11C166.074 71.6156 154.92 89.0285 149.244 91.6034C143.569 94.1782 126.018 87.6102 124.796 78.8819C123.683 70.83 129.838 64.5893 132.196 62.4072C133.809 62.2951 135.428 62.2951 137.042 62.4072L137.544 54.0717C145.228 51.6278 156.404 47.8092 156.404 47.8092" fill="#FFCEA9"/>
<path d="M105.87 139.347C100.998 146.036 95.2322 152.027 88.7345 157.153C86.6728 159.301 84.7203 161.552 82.8843 163.895C79.8175 167.431 75.8496 170.071 71.4023 171.533C67.5168 172.536 65.8796 172.275 65.2247 171.533C64.5699 170.791 64.8755 169.678 66.5781 169.023C69.328 168.214 71.8884 166.864 74.1091 165.052C74.1091 165.052 70.4855 166.71 68.2153 167.518C66.1665 168.227 64.0283 168.646 61.8631 168.761C59.6802 168.761 57.4973 166.274 59.1781 165.554C60.859 164.834 62.4088 164.768 65.7268 163.525C67.492 162.898 69.1657 162.04 70.7038 160.972C68.392 161.659 66.026 162.148 63.6312 162.434C61.6347 162.76 59.5866 162.526 57.7156 161.757C56.7115 161.321 55.8383 159.575 58.0867 158.899C61.0055 158.62 63.875 157.96 66.6218 156.935C69.2412 155.735 70.9876 154.491 70.3109 154.229C69.6342 153.967 68.128 154.796 65.5958 154.6C63.0637 154.403 60.5097 152.745 60.5315 151.327C60.5534 149.908 61.0991 150.694 63.6749 150.476C66.2507 150.258 68.3026 149.079 71.9917 149.079C74.7552 149.189 77.5185 148.857 80.1775 148.097C82.9716 147.268 89.2583 139.74 94.0825 132.823C99.3225 125.127 103.466 116.74 106.394 107.903C109.297 98.3897 112.746 80.584 115.126 74.4087C117.505 68.2334 121.827 65.3967 125.865 65.2658C130.602 65.1131 132.632 71.3538 131.366 76.7435C129.183 86.1919 118.618 122.567 105.783 139.413" fill="#FFCEA9"/>
<path d="M158.762 67.797C163.586 68.5389 169.108 71.1138 169.872 73.7541C170.746 76.8526 172.667 91.3634 168.475 102.427C164.284 113.49 159.569 133.412 157.168 138.191C157.168 138.191 138.046 141.595 121.194 131.164C121.194 131.164 120.19 111.94 120.124 105.612C104.582 92.0398 117.942 75.347 131.039 62.3418C132.615 62.2111 134.199 62.2111 135.776 62.3418C135.776 62.3418 124.032 76.2198 132.196 84.1625C149.659 78.8601 153.173 71.0701 158.762 67.8843" fill="#F4F4F4"/>
<path d="M124.316 26.4031C126.04 15.4927 134.008 7.04813 145.402 7.70275C149.993 7.93842 154.392 9.61687 157.973 12.4988C161.554 15.3808 164.132 19.3191 165.342 23.7524C166.552 28.1856 166.331 32.8875 164.71 37.1877C163.089 41.4879 160.152 45.1669 156.317 47.7001C155.923 49.3697 155.337 50.988 154.57 52.5225C150.51 57.214 139.814 60.1816 136.278 60.2252C133.222 60.2252 130.58 57.4104 127.721 52.6753C121.762 42.7905 123.355 31.8583 124.228 26.4904" fill="#FFCEA9"/>
<path d="M148.917 7.9427C156.906 9.51379 163.477 11.7613 165.638 19.595C167.122 25.0065 169.065 35.2841 167.209 39.6264L166.074 42.7467L156.404 47.7437C156.404 47.7437 151.885 43.9687 153.304 32.9492C153.243 31.4591 152.767 30.0156 151.929 28.7815C151.329 27.7451 150.881 26.6282 150.598 25.4647C149.458 22.4828 147.215 20.0531 144.333 18.6785C137.129 14.6417 126.586 18.133 125.123 19.5731C127.153 15.2006 130.625 11.6585 134.957 9.54098C139.289 7.42344 144.218 6.85913 148.917 7.9427Z" fill="#2B2A30"/>
<path d="M104.953 271.974C100.915 275.269 94.6283 272.999 94.3227 273.305C90.2188 277.407 84.0849 281.007 79.5227 284.586C77.0123 286.572 73.0831 289.234 73.8035 293.031C75.0696 299.839 85.9622 297.744 90.0879 295.671C94.2135 293.598 97.5533 290.128 101.439 287.706C104.211 285.982 106.94 285.11 107.376 281.597C107.638 279.414 105.674 271.908 104.953 271.974Z" fill="#2B2A30"/>
<path d="M107.333 280.222C106.787 283.582 104.102 284.586 101.352 286.222C97.3787 288.666 93.9079 292.223 89.8041 294.296C85.7002 296.369 76.5103 298.158 73.9563 293.271C75.397 299.817 86.115 297.766 90.197 295.715C94.279 293.663 97.6625 290.172 101.548 287.75C104.32 286.026 107.049 285.153 107.485 281.64C107.537 281.169 107.537 280.693 107.485 280.222" fill="#BF4B4B"/>
<path d="M85.2637 261.063C81.5746 264.074 75.9864 262.394 75.7026 262.678C71.948 266.453 66.3598 269.682 62.1687 272.977C59.8767 274.788 56.2749 277.211 56.9298 280.702C58.0867 286.943 68.0625 285.066 71.8389 283.124C75.6153 281.182 78.6713 278.04 82.2513 275.836C84.7834 274.265 87.2938 273.436 87.6867 270.228C87.9268 268.286 85.9185 260.998 85.2637 261.063Z" fill="#2B2A30"/>
<path d="M87.643 268.853C87.141 271.908 84.6743 272.759 82.164 274.33C78.5404 276.512 75.3534 279.829 71.577 281.727C67.8006 283.626 59.4183 285.241 56.9734 280.789C58.305 286.79 68.1062 284.913 71.8389 282.971C75.5716 281.029 78.6713 277.909 82.2513 275.705C84.7834 274.112 87.2938 273.305 87.6867 270.097C87.7383 269.669 87.7383 269.237 87.6867 268.81" fill="#BF4B4B"/>
<path d="M141.233 142.424C130.277 143.868 119.135 142.259 109.035 137.776C109.21 141.18 109.385 144.322 109.385 144.322C96.2873 153.574 70.0926 169.154 68.2808 179.912C69.9834 213.887 75.1569 262.416 76.6194 263.114C80.7451 265.078 83.6265 264.751 85.5474 262.809C85.5474 262.809 93.8206 234.027 91.4194 191.782C91.4194 191.782 137.26 171.489 140.251 160.404C141.975 154.011 141.626 153.203 141.495 146.592C141.495 145.217 141.364 143.864 141.233 142.511" fill="#FFCEA9"/>
<path d="M156.448 138.016C147.367 142.249 138.985 142.773 128.769 141.726C128.9 146.264 129.424 154.818 129.424 154.818C116.326 164.07 90.1315 179.65 88.2979 190.408C90.0224 224.383 93.1876 273.588 94.6938 274.199C96.4625 274.972 98.4045 275.262 100.322 275.04C102.239 274.817 104.063 274.091 105.608 272.934C105.608 272.934 113.881 244.567 111.48 202.278C111.48 201.493 150.772 182.159 155.749 177.032C161.097 171.555 161.708 164.332 161.577 157.087C161.447 150.279 159.395 144.671 156.491 138.016" fill="#FFCEA9"/>
<path d="M166.074 145.217C166.074 145.217 180.612 170.944 156.382 184.167C130.842 198.11 115.257 201.384 115.257 201.384L111.437 202.278C111.437 202.278 113.248 211.617 111.437 229.009C111.437 229.009 93.2094 235.38 69.9616 214.912L62.256 190.124L61.3392 183.578C60.8939 181.332 61.0161 179.01 61.6945 176.823C62.373 174.636 63.5863 172.653 65.2247 171.053C70.7911 166.012 88.4725 153.072 99.4743 145.653C110.476 138.234 119.251 131.164 119.251 131.164L121.172 129.375C121.172 129.375 134.27 139.74 158.041 136.27C161.197 138.806 163.93 141.826 166.14 145.217" fill="#E26D6D"/>
<path d="M151.667 183.381C153.85 181.876 155.334 179.716 158.696 177.839C161.304 176.54 163.69 174.839 165.769 172.798C167.952 170.616 171.291 161.233 173.016 152.112C174.597 141.924 174.42 131.539 172.492 121.411C169.477 109.31 165.409 97.4961 160.333 86.1046C157.103 79.2748 158.914 75.1942 161.861 72.0957C165.332 68.5389 168.956 68.6262 173.059 78.1619C177.163 87.6975 183.734 105.721 185.829 119.621C187.487 129.998 187.346 140.583 185.415 150.912C183.691 159.942 180.892 168.733 177.076 177.097C176.006 179.563 175.832 181.636 174.369 186.567C172.947 191.472 170.363 195.963 166.838 199.66C163.695 202.584 162.101 203.151 161.228 202.758C160.355 202.365 160.202 201.165 161.49 199.66C163.704 197.434 165.495 194.824 166.773 191.957C166.773 191.957 164.131 195.383 162.407 197.303C160.847 198.994 159.062 200.462 157.103 201.667C155.182 202.824 152.147 201.471 153.413 199.922C154.68 198.372 156.055 197.521 158.631 194.641C160.004 193.13 161.191 191.459 162.167 189.666C160.34 191.48 158.369 193.144 156.273 194.641C154.65 195.942 152.688 196.752 150.619 196.976C149.55 196.976 148.065 195.732 149.877 194.03C152.436 192.347 154.795 190.378 156.906 188.16C158.827 185.673 159.853 183.665 159.22 183.687C158.587 183.709 157.561 185.258 155.072 186.414C152.584 187.571 149.703 187.178 149.2 185.804C148.698 184.429 149.462 184.909 151.733 183.381" fill="#FFCEA9"/>
<path d="M179.412 90.9924C179.412 90.9924 170.68 98.8042 160.792 97.2113L156.906 80.8457C156.906 80.8457 154.308 72.1174 161.708 68.9316C169.108 65.7458 176.137 74.2559 179.324 90.9924" fill="#EDEDED"/>
<path d="M131.039 62.3418C131.039 62.3418 121.5 59.4396 111.393 80.5621L115.169 82.8533C115.169 82.8533 125.145 67.7751 131.061 62.3418" fill="#EDEDED"/>
<path d="M65.2247 153.443L99.2123 133.805C99.5077 133.634 99.8427 133.545 100.184 133.545C100.525 133.545 100.86 133.634 101.155 133.805L160.748 168.194L125.822 188.378L65.2247 153.443Z" fill="#F4F4F4"/>
<path d="M126.651 180.654L129.249 182.159C129.467 182.159 129.424 182.487 129.249 182.639L126.76 184.058C126.635 184.121 126.497 184.154 126.357 184.154C126.216 184.154 126.078 184.121 125.953 184.058L123.29 182.509C123.071 182.378 123.093 182.181 123.29 182.028L125.778 180.61C125.906 180.541 126.048 180.505 126.193 180.505C126.338 180.505 126.48 180.541 126.608 180.61" fill="#3A2C6D"/>
<path d="M122.962 178.537L125.56 180.043C125.778 180.043 125.756 180.37 125.56 180.501L123.071 181.941C122.941 182 122.8 182.031 122.657 182.031C122.514 182.031 122.372 182 122.242 181.941L119.644 180.436C119.426 180.305 119.47 180.086 119.644 179.956L122.111 178.515C122.239 178.45 122.381 178.416 122.526 178.416C122.67 178.416 122.812 178.45 122.94 178.515" fill="#3A2C6D"/>
<path d="M119.251 176.377L121.849 177.883C122.045 178.014 122.024 178.21 121.849 178.363L119.36 179.803C119.236 179.868 119.097 179.902 118.957 179.902C118.816 179.902 118.677 179.868 118.553 179.803L115.955 178.297C115.737 178.188 115.759 177.97 115.955 177.839L118.444 176.399C118.573 176.335 118.715 176.302 118.858 176.302C119.002 176.302 119.144 176.335 119.273 176.399" fill="#3A2C6D"/>
<path d="M115.606 174.282L118.203 175.788C118.422 175.919 118.4 176.115 118.203 176.268L115.737 177.686C115.609 177.755 115.467 177.791 115.322 177.791C115.177 177.791 115.035 177.755 114.907 177.686L112.31 176.181C112.091 176.071 112.113 175.853 112.31 175.7L114.776 174.282C114.905 174.219 115.047 174.186 115.191 174.186C115.335 174.186 115.477 174.219 115.606 174.282Z" fill="#3A2C6D"/>
<path d="M111.939 172.166L114.536 173.671C114.733 173.78 114.711 173.998 114.536 174.151L112.048 175.57C111.919 175.633 111.777 175.666 111.633 175.666C111.489 175.666 111.347 175.633 111.218 175.57L108.621 174.064C108.424 173.933 108.446 173.737 108.621 173.584L111.109 172.166C111.237 172.097 111.379 172.061 111.524 172.061C111.669 172.061 111.811 172.097 111.939 172.166Z" fill="#3A2C6D"/>
<path d="M108.249 170.049L110.847 171.533C111.065 171.664 111.044 171.882 110.847 172.013L108.38 173.453C108.252 173.518 108.11 173.552 107.966 173.552C107.822 173.552 107.68 173.518 107.551 173.453L104.953 171.969C104.735 171.838 104.757 171.62 104.953 171.489L107.42 170.049C107.549 169.984 107.691 169.95 107.835 169.95C107.979 169.95 108.121 169.984 108.249 170.049Z" fill="#3A2C6D"/>
<path d="M104.517 167.91L107.114 169.416C107.311 169.547 107.289 169.743 107.114 169.896L104.626 171.336C104.497 171.401 104.355 171.435 104.211 171.435C104.067 171.435 103.925 171.401 103.796 171.336L101.199 169.831C101.002 169.831 101.024 169.503 101.199 169.372L103.687 167.932C103.816 167.869 103.958 167.836 104.102 167.836C104.246 167.836 104.388 167.869 104.517 167.932" fill="#3A2C6D"/>
<path d="M100.893 165.794L103.491 167.299C103.709 167.409 103.687 167.627 103.491 167.78L101.024 169.198C100.895 169.261 100.753 169.294 100.609 169.294C100.466 169.294 100.324 169.261 100.195 169.198L97.597 167.692C97.3787 167.561 97.4006 167.365 97.597 167.212L100.064 165.794C100.191 165.725 100.334 165.689 100.478 165.689C100.623 165.689 100.766 165.725 100.893 165.794Z" fill="#3A2C6D"/>
<path d="M97.2259 163.677L99.8235 165.161C100.02 165.292 99.9982 165.51 99.8235 165.641L97.335 167.081C97.2048 167.14 97.0634 167.171 96.9203 167.171C96.7772 167.171 96.6358 167.14 96.5056 167.081L93.9079 165.576C93.7115 165.445 93.7333 165.227 93.9079 165.096L96.3964 163.655C96.5249 163.59 96.667 163.556 96.8112 163.556C96.9553 163.556 97.0974 163.59 97.2259 163.655" fill="#3A2C6D"/>
<path d="M93.6023 161.539L96.1999 163.044C96.4182 163.175 96.3964 163.394 96.1999 163.525L93.6023 165.052C93.4738 165.117 93.3317 165.151 93.1876 165.151C93.0434 165.151 92.9013 165.117 92.7728 165.052L90.1752 163.568C89.9569 163.437 89.9787 163.219 90.1752 163.088L92.6418 161.648C92.7721 161.589 92.9135 161.558 93.0566 161.558C93.1996 161.558 93.341 161.589 93.4713 161.648" fill="#3A2C6D"/>
<path d="M89.8696 159.422L92.4672 160.928C92.6637 161.059 92.6418 161.255 92.4672 161.408L89.9787 162.826C89.8513 162.895 89.7088 162.931 89.564 162.931C89.4192 162.931 89.2766 162.895 89.1492 162.826L86.5516 161.321C86.3551 161.212 86.3769 160.993 86.5516 160.841L89.0401 159.422C89.1691 159.359 89.311 159.326 89.4548 159.326C89.5986 159.326 89.7405 159.359 89.8696 159.422Z" fill="#3A2C6D"/>
<path d="M86.1805 157.306L88.7781 158.811C88.9964 158.92 88.9746 159.139 88.7781 159.291L86.3114 160.71C86.1824 160.773 86.0405 160.806 85.8967 160.806C85.7529 160.806 85.611 160.773 85.4819 160.71L82.8843 159.204C82.666 159.073 82.6878 158.877 82.8843 158.724L85.351 157.306C85.4784 157.237 85.6209 157.201 85.7657 157.201C85.9105 157.201 86.053 157.237 86.1805 157.306Z" fill="#3A2C6D"/>
<path d="M82.5132 155.189L85.1109 156.673C85.3073 156.804 85.2855 157.022 85.1109 157.153L82.6224 158.593C82.4939 158.658 82.3518 158.692 82.2076 158.692C82.0635 158.692 81.9214 158.658 81.7929 158.593L79.1952 157.109C78.9988 156.978 79.0206 156.76 79.1952 156.629L81.6837 155.189C81.8123 155.124 81.9544 155.09 82.0985 155.09C82.2426 155.09 82.3847 155.124 82.5132 155.189Z" fill="#3A2C6D"/>
<path d="M77.056 151.96L81.4218 154.469C81.6401 154.6 81.6182 154.818 81.4218 154.949L78.9551 156.389C78.8266 156.454 78.6845 156.488 78.5404 156.488C78.3962 156.488 78.2542 156.454 78.1256 156.389L73.7598 153.88C73.5416 153.749 73.5634 153.531 73.7598 153.4L76.2483 151.96C76.3769 151.894 76.519 151.86 76.6631 151.86C76.8072 151.86 76.9493 151.894 77.0778 151.96" fill="#3A2C6D"/>
<path d="M124.752 175.439L127.35 176.944C127.568 177.075 127.546 177.293 127.35 177.424L124.883 178.865C124.755 178.93 124.612 178.964 124.468 178.964C124.324 178.964 124.182 178.93 124.054 178.865L121.456 177.381C121.238 177.25 121.26 177.032 121.456 176.901L123.923 175.46C124.053 175.401 124.194 175.371 124.337 175.371C124.48 175.371 124.622 175.401 124.752 175.46" fill="#3A2C6D"/>
<path d="M121.063 173.322L123.661 174.828C123.879 174.937 123.857 175.155 123.661 175.308L121.172 176.726C121.043 176.79 120.901 176.823 120.757 176.823C120.614 176.823 120.472 176.79 120.343 176.726L117.614 175.264C117.396 175.133 117.439 174.937 117.614 174.784L120.081 173.366C120.208 173.297 120.351 173.261 120.496 173.261C120.64 173.261 120.783 173.297 120.91 173.366" fill="#3A2C6D"/>
<path d="M117.396 171.205L119.972 172.689C120.19 172.82 120.168 173.038 119.972 173.169L117.483 174.609C117.355 174.675 117.213 174.709 117.068 174.709C116.924 174.709 116.782 174.675 116.654 174.609L114.056 173.126C113.86 172.995 113.881 172.777 114.056 172.646L116.544 171.205C116.673 171.14 116.815 171.106 116.959 171.106C117.103 171.106 117.245 171.14 117.374 171.205" fill="#3A2C6D"/>
<path d="M113.707 169.067L116.304 170.573C116.501 170.682 116.479 170.9 116.304 171.053L113.816 172.471C113.687 172.535 113.545 172.568 113.401 172.568C113.257 172.568 113.115 172.535 112.986 172.471L110.389 170.965C110.192 170.965 110.214 170.638 110.389 170.485L112.877 169.067C113.006 169.003 113.148 168.97 113.292 168.97C113.436 168.97 113.578 169.003 113.707 169.067Z" fill="#3A2C6D"/>
<path d="M110.039 166.95L112.637 168.456C112.855 168.587 112.834 168.805 112.637 168.936L110.149 170.376C110.02 170.441 109.878 170.475 109.734 170.475C109.59 170.475 109.448 170.441 109.319 170.376L106.7 168.892C106.481 168.892 106.525 168.565 106.7 168.434L109.166 166.994C109.297 166.935 109.438 166.904 109.581 166.904C109.724 166.904 109.866 166.935 109.996 166.994" fill="#3A2C6D"/>
<path d="M106.35 164.834L108.948 166.339C109.166 166.339 109.144 166.667 108.948 166.819L106.46 168.238C106.331 168.301 106.189 168.334 106.045 168.334C105.901 168.334 105.759 168.301 105.63 168.238L103.032 166.732C102.836 166.601 102.858 166.405 103.032 166.252L105.521 164.834C105.644 164.765 105.783 164.729 105.925 164.729C106.066 164.729 106.205 164.765 106.329 164.834" fill="#3A2C6D"/>
<path d="M102.683 162.717L105.281 164.201C105.477 164.332 105.455 164.55 105.281 164.681L102.792 166.121C102.664 166.186 102.522 166.22 102.378 166.22C102.233 166.22 102.091 166.186 101.963 166.121L99.3651 164.637C99.1687 164.506 99.1905 164.288 99.3651 164.157L101.854 162.717C101.982 162.652 102.124 162.618 102.268 162.618C102.413 162.618 102.555 162.652 102.683 162.717Z" fill="#3A2C6D"/>
<path d="M98.994 160.688L101.592 162.194C101.81 162.303 101.766 162.521 101.592 162.674L99.125 164.092C98.996 164.155 98.8541 164.188 98.7103 164.188C98.5664 164.188 98.4245 164.155 98.2955 164.092L95.6979 162.586C95.4796 162.455 95.5014 162.259 95.6979 162.106L98.1864 160.688C98.3138 160.619 98.4563 160.583 98.6011 160.583C98.7459 160.583 98.8884 160.619 99.0159 160.688" fill="#3A2C6D"/>
<path d="M95.305 158.506L97.9026 159.99C98.1209 160.12 98.0991 160.339 97.9026 160.47L95.4359 161.91C95.3074 161.975 95.1653 162.009 95.0212 162.009C94.8771 162.009 94.735 161.975 94.6064 161.91L92.0088 160.426C91.7905 160.295 91.8123 160.077 92.0088 159.946L94.4755 158.506C94.604 158.441 94.7461 158.407 94.8902 158.407C95.0343 158.407 95.1764 158.441 95.305 158.506Z" fill="#3A2C6D"/>
<path d="M91.6159 156.324L94.2135 157.829C94.4318 157.96 94.41 158.157 94.2135 158.309L91.725 159.728C91.5976 159.796 91.4551 159.832 91.3103 159.832C91.1655 159.832 91.0229 159.796 90.8955 159.728L88.2979 158.222C88.0796 158.222 88.1233 157.895 88.2979 157.742L90.7645 156.324C90.8936 156.26 91.0355 156.227 91.1793 156.227C91.3231 156.227 91.465 156.26 91.594 156.324" fill="#3A2C6D"/>
<path d="M87.9268 154.142L90.5244 155.625C90.7427 155.756 90.7209 155.974 90.5244 156.105L88.0359 157.546C87.9074 157.611 87.7653 157.645 87.6212 157.645C87.4771 157.645 87.335 157.611 87.2064 157.546L84.6088 156.062C84.4123 155.931 84.4342 155.713 84.6088 155.582L87.0536 154.142C87.1783 154.077 87.3169 154.043 87.4575 154.043C87.5981 154.043 87.7366 154.077 87.8613 154.142" fill="#3A2C6D"/>
<path d="M84.2596 152.069L86.8572 153.574C87.0536 153.705 87.0318 153.902 86.8572 154.054L84.3687 155.473C84.2413 155.541 84.0987 155.577 83.9539 155.577C83.8091 155.577 83.6666 155.541 83.5392 155.473L80.9416 153.967C80.7451 153.858 80.7669 153.64 80.9416 153.487L83.4301 152.069C83.5591 152.005 83.701 151.972 83.8448 151.972C83.9886 151.972 84.1305 152.005 84.2596 152.069Z" fill="#3A2C6D"/>
<path d="M128.529 177.577L132.894 180.108C133.113 180.108 133.091 180.436 132.894 180.566L130.428 182.007C130.297 182.066 130.156 182.096 130.013 182.096C129.87 182.096 129.728 182.066 129.598 182.007L125.232 179.475C125.014 179.345 125.036 179.148 125.232 178.995L127.721 177.577C127.848 177.508 127.991 177.472 128.136 177.472C128.28 177.472 128.423 177.508 128.55 177.577" fill="#3A2C6D"/>
<path d="M77.2306 151.96L79.8283 153.465C79.9451 153.53 80.0766 153.564 80.2103 153.564C80.344 153.564 80.4755 153.53 80.5923 153.465L83.2118 151.96C83.43 151.829 83.43 151.632 83.2118 151.501H82.9935C82.9498 151.487 82.9118 151.459 82.8848 151.422C82.8579 151.385 82.8433 151.34 82.8433 151.294C82.8433 151.248 82.8579 151.203 82.8848 151.166C82.9118 151.129 82.9498 151.101 82.9935 151.087L85.7657 149.494C85.984 149.363 85.984 149.166 85.7657 149.036L84.1286 148.075C84.0062 148.016 83.8718 147.985 83.7356 147.985C83.5995 147.985 83.4651 148.016 83.3427 148.075L80.7669 149.559L80.2212 149.865L79.8283 150.105L79.4572 150.323L77.2743 151.61C77.056 151.741 77.056 151.938 77.2743 152.047" fill="#3A2C6D"/>
<path d="M140.884 172.427L143.481 173.911C143.7 174.042 143.678 174.26 143.481 174.391L140.993 175.831C140.864 175.897 140.722 175.931 140.578 175.931C140.434 175.931 140.292 175.897 140.163 175.831L137.566 174.348C137.347 174.217 137.391 173.998 137.566 173.868L140.032 172.427C140.161 172.362 140.303 172.328 140.447 172.328C140.591 172.328 140.733 172.362 140.862 172.427" fill="#3A2C6D"/>
<path d="M137.26 170.311L139.858 171.795C140.076 171.926 140.054 172.144 139.858 172.275L137.26 173.78C137.132 173.845 136.989 173.879 136.845 173.879C136.701 173.879 136.559 173.845 136.431 173.78L133.833 172.296C133.615 172.166 133.658 171.947 133.833 171.816L136.3 170.376C136.428 170.311 136.57 170.277 136.714 170.277C136.859 170.277 137.001 170.311 137.129 170.376" fill="#3A2C6D"/>
<path d="M133.549 168.194L136.147 169.678C136.365 169.809 136.343 170.027 136.147 170.158L133.658 171.598C133.53 171.663 133.388 171.697 133.244 171.697C133.099 171.697 132.957 171.663 132.829 171.598L130.231 170.114C130.013 169.983 130.057 169.765 130.231 169.634L132.698 168.194C132.826 168.129 132.968 168.095 133.113 168.095C133.257 168.095 133.399 168.129 133.527 168.194" fill="#3A2C6D"/>
<path d="M102.334 150.148L104.932 151.654C105.15 151.785 105.128 151.981 104.932 152.134L102.443 153.574C102.314 153.64 102.172 153.673 102.028 153.673C101.884 153.673 101.742 153.64 101.614 153.574L99.0159 152.069C98.7976 151.96 98.8412 151.741 99.0159 151.589L101.483 150.17C101.612 150.107 101.753 150.074 101.897 150.074C102.041 150.074 102.183 150.107 102.312 150.17" fill="#3A2C6D"/>
<path d="M98.6448 148.032L101.242 149.537C101.461 149.668 101.439 149.865 101.242 150.017L98.7539 151.458C98.6254 151.523 98.4833 151.557 98.3392 151.557C98.1951 151.557 98.053 151.523 97.9244 151.458L95.3268 149.952C95.1085 149.843 95.1522 149.625 95.3268 149.494L97.7935 148.054C97.9225 147.99 98.0644 147.957 98.2082 147.957C98.352 147.957 98.4939 147.99 98.623 148.054" fill="#3A2C6D"/>
<path d="M94.9775 145.915L97.5752 147.421C97.7935 147.552 97.7716 147.748 97.5752 147.901L95.0867 149.341C94.9581 149.406 94.816 149.44 94.6719 149.44C94.5278 149.44 94.3857 149.406 94.2572 149.341L91.6595 147.835C91.4412 147.726 91.4849 147.508 91.6595 147.355L94.1262 145.937C94.2552 145.874 94.3971 145.84 94.5409 145.84C94.6848 145.84 94.8267 145.874 94.9557 145.937" fill="#3A2C6D"/>
<path d="M91.4194 143.799L94.0171 145.304C94.2353 145.435 94.2135 145.632 94.0171 145.784L91.5286 147.225C91.4 147.29 91.2579 147.324 91.1138 147.324C90.9697 147.324 90.8276 147.29 90.6991 147.225L88.1014 145.719C87.8831 145.61 87.9268 145.392 88.1014 145.239L90.5681 143.82C90.6971 143.757 90.839 143.724 90.9828 143.724C91.1267 143.724 91.2686 143.757 91.3976 143.82" fill="#3A2C6D"/>
<path d="M128.943 165.51L132.48 167.561C132.698 167.692 132.676 167.91 132.48 168.041L129.991 169.482C129.863 169.547 129.72 169.581 129.576 169.581C129.432 169.581 129.29 169.547 129.162 169.482L125.625 167.43C125.407 167.43 125.429 167.103 125.625 166.972L128.114 165.532C128.244 165.473 128.385 165.442 128.529 165.442C128.672 165.442 128.813 165.473 128.943 165.532" fill="#3A2C6D"/>
<path d="M105.979 152.265L109.537 154.316C109.734 154.447 109.712 154.643 109.537 154.796L107.049 156.236C106.92 156.302 106.778 156.336 106.634 156.336C106.49 156.336 106.348 156.302 106.219 156.236L102.618 154.142C102.399 154.032 102.443 153.814 102.618 153.662L105.084 152.243C105.213 152.18 105.355 152.147 105.499 152.147C105.643 152.147 105.785 152.18 105.914 152.243" fill="#3A2C6D"/>
<path d="M110.607 154.927L127.874 164.899C128.092 165.03 128.07 165.248 127.874 165.379L125.407 166.819C125.278 166.885 125.136 166.919 124.992 166.919C124.848 166.919 124.706 166.885 124.578 166.819L107.311 156.847C107.093 156.738 107.114 156.52 107.311 156.367L109.799 154.949C109.928 154.885 110.07 154.852 110.214 154.852C110.358 154.852 110.5 154.885 110.629 154.949" fill="#3A2C6D"/>
<path d="M127.328 172.82L129.926 174.304C130.122 174.435 130.1 174.653 129.926 174.784L127.437 176.224C127.307 176.283 127.165 176.314 127.022 176.314C126.879 176.314 126.738 176.283 126.608 176.224L124.01 174.719C123.814 174.588 123.835 174.369 124.01 174.239L126.498 172.798C126.627 172.733 126.769 172.699 126.913 172.699C127.057 172.699 127.199 172.733 127.328 172.798" fill="#3A2C6D"/>
<path d="M123.639 170.703L126.237 172.187C126.455 172.318 126.433 172.536 126.237 172.667L123.748 174.108C123.619 174.173 123.477 174.207 123.333 174.207C123.189 174.207 123.047 174.173 122.919 174.108L120.321 172.624C120.103 172.493 120.146 172.275 120.321 172.144L122.788 170.703C122.916 170.638 123.058 170.604 123.202 170.604C123.346 170.604 123.489 170.638 123.617 170.703" fill="#3A2C6D"/>
<path d="M119.972 168.565L122.569 170.071C122.788 170.202 122.744 170.398 122.569 170.551L120.103 171.991C119.974 172.056 119.832 172.09 119.688 172.09C119.544 172.09 119.402 172.056 119.273 171.991L116.675 170.485C116.457 170.376 116.479 170.158 116.675 170.005L119.164 168.587C119.293 168.523 119.435 168.49 119.579 168.49C119.723 168.49 119.864 168.523 119.993 168.587" fill="#3A2C6D"/>
<path d="M116.304 166.448L118.902 167.954C119.098 168.085 119.077 168.281 118.902 168.434L116.414 169.853C116.286 169.921 116.144 169.957 115.999 169.957C115.854 169.957 115.711 169.921 115.584 169.853L112.986 168.347C112.79 168.238 112.812 168.02 112.986 167.867L115.475 166.448C115.604 166.385 115.746 166.352 115.89 166.352C116.033 166.352 116.175 166.385 116.304 166.448Z" fill="#3A2C6D"/>
<path d="M112.615 164.332L115.213 165.838C115.431 165.838 115.409 166.165 115.213 166.318L112.724 167.736C112.595 167.799 112.454 167.833 112.31 167.833C112.166 167.833 112.024 167.799 111.895 167.736L109.297 166.23C109.079 166.099 109.123 165.903 109.297 165.75L111.764 164.332C111.891 164.263 112.034 164.227 112.179 164.227C112.324 164.227 112.466 164.263 112.593 164.332" fill="#3A2C6D"/>
<path d="M108.883 162.215L111.48 163.721C111.698 163.83 111.655 164.048 111.48 164.179L109.014 165.619C108.883 165.678 108.742 165.709 108.599 165.709C108.456 165.709 108.314 165.678 108.184 165.619L105.586 164.114C105.368 163.983 105.39 163.765 105.586 163.634L108.075 162.193C108.203 162.128 108.345 162.094 108.49 162.094C108.634 162.094 108.776 162.128 108.904 162.193" fill="#3A2C6D"/>
<path d="M105.281 160.099L107.878 161.582C108.075 161.713 108.053 161.932 107.878 162.063L105.39 163.503C105.261 163.568 105.119 163.602 104.975 163.602C104.831 163.602 104.689 163.568 104.56 163.503L101.963 162.019C101.766 161.888 101.788 161.67 101.963 161.539L104.451 160.099C104.58 160.033 104.722 160 104.866 160C105.01 160 105.152 160.033 105.281 160.099Z" fill="#3A2C6D"/>
<path d="M101.592 157.96L104.189 159.466C104.408 159.597 104.386 159.815 104.189 159.946L101.701 161.386C101.572 161.451 101.43 161.485 101.286 161.485C101.142 161.485 101 161.451 100.871 161.386L98.2737 159.88C98.0554 159.88 98.0991 159.553 98.2737 159.422L100.74 157.982C100.871 157.923 101.012 157.892 101.155 157.892C101.298 157.892 101.44 157.923 101.57 157.982" fill="#3A2C6D"/>
<path d="M97.9681 155.844L100.566 157.349C100.784 157.48 100.762 157.677 100.566 157.829L98.0991 159.248C97.9716 159.316 97.8291 159.352 97.6843 159.352C97.5395 159.352 97.397 159.316 97.2696 159.248L94.6719 157.742C94.4536 157.742 94.4755 157.415 94.6719 157.262L97.1386 155.844C97.2676 155.78 97.4095 155.747 97.5533 155.747C97.6972 155.747 97.8391 155.78 97.9681 155.844Z" fill="#3A2C6D"/>
<path d="M94.2572 153.727L96.8548 155.233C97.0513 155.342 97.0294 155.56 96.8548 155.713L94.3663 157.131C94.2389 157.2 94.0964 157.236 93.9516 157.236C93.8068 157.236 93.6642 157.2 93.5368 157.131L90.9392 155.625C90.7427 155.625 90.7645 155.298 90.9392 155.145L93.4277 153.727C93.5567 153.664 93.6986 153.63 93.8424 153.63C93.9862 153.63 94.1281 153.664 94.2572 153.727Z" fill="#3A2C6D"/>
<path d="M90.5681 151.61L93.1657 153.116C93.384 153.225 93.3622 153.443 93.1657 153.596L90.6772 155.014C90.5482 155.078 90.4063 155.111 90.2625 155.111C90.1187 155.111 89.9767 155.078 89.8477 155.014L87.2501 153.509C87.0318 153.378 87.0755 153.181 87.2501 153.029L89.7168 151.61C89.8442 151.542 89.9867 151.506 90.1315 151.506C90.2763 151.506 90.4188 151.542 90.5463 151.61" fill="#3A2C6D"/>
<path d="M86.9008 149.494L89.4985 150.978C89.7168 151.109 89.6949 151.327 89.4985 151.458L87.0318 152.898C86.9033 152.963 86.7612 152.997 86.6171 152.997C86.4729 152.997 86.3309 152.963 86.2023 152.898L83.6047 151.414C83.3864 151.283 83.4082 151.065 83.6047 150.934L86.0713 149.494C86.1999 149.429 86.342 149.395 86.4861 149.395C86.6302 149.395 86.7723 149.429 86.9008 149.494Z" fill="#3A2C6D"/>
<path d="M130.995 174.937L136.365 178.144C136.583 178.275 136.562 178.472 136.365 178.624L133.898 180.043C133.771 180.112 133.628 180.148 133.484 180.148C133.339 180.148 133.196 180.112 133.069 180.043L127.699 176.944C127.481 176.813 127.503 176.595 127.699 176.464L130.188 175.024C130.316 174.959 130.458 174.925 130.602 174.925C130.746 174.925 130.888 174.959 131.017 175.024" fill="#3A2C6D"/>
<path d="M132.698 171.816L135.296 173.3C135.514 173.431 135.492 173.649 135.296 173.78L132.807 175.22C132.678 175.286 132.536 175.32 132.392 175.32C132.248 175.32 132.106 175.286 131.978 175.22L129.336 173.78C129.14 173.649 129.162 173.431 129.336 173.3L131.825 171.86C131.949 171.795 132.088 171.761 132.229 171.761C132.369 171.761 132.508 171.795 132.632 171.86" fill="#3A2C6D"/>
<path d="M129.031 169.7L131.628 171.184C131.847 171.315 131.825 171.533 131.628 171.664L129.162 173.104C129.033 173.169 128.891 173.203 128.747 173.203C128.603 173.203 128.461 173.169 128.332 173.104L125.669 171.598C125.451 171.467 125.472 171.249 125.669 171.118L128.136 169.678C128.264 169.613 128.406 169.579 128.55 169.579C128.694 169.579 128.837 169.613 128.965 169.678" fill="#3A2C6D"/>
<path d="M125.363 167.561L127.961 169.067C128.179 169.198 128.136 169.394 127.961 169.547L125.494 170.987C125.366 171.052 125.224 171.086 125.08 171.086C124.935 171.086 124.793 171.052 124.665 170.987L121.98 169.416C121.762 169.416 121.783 169.089 121.98 168.936L124.468 167.518C124.597 167.454 124.739 167.421 124.883 167.421C125.027 167.421 125.169 167.454 125.298 167.518" fill="#3A2C6D"/>
<path d="M121.696 165.445L124.294 166.95C124.49 166.95 124.468 167.278 124.294 167.43L121.805 168.849C121.678 168.917 121.535 168.953 121.39 168.953C121.246 168.953 121.103 168.917 120.976 168.849L118.378 167.343C118.182 167.343 118.203 167.016 118.378 166.863L120.867 165.445C120.996 165.381 121.138 165.348 121.281 165.348C121.425 165.348 121.567 165.381 121.696 165.445Z" fill="#3A2C6D"/>
<path d="M118.007 163.328L120.605 164.834C120.823 164.834 120.801 165.161 120.605 165.314L118.116 166.732C117.987 166.796 117.845 166.829 117.701 166.829C117.558 166.829 117.416 166.796 117.287 166.732L114.689 165.227C114.471 165.096 114.514 164.899 114.689 164.747L117.156 163.328C117.283 163.259 117.426 163.223 117.57 163.223C117.715 163.223 117.858 163.259 117.985 163.328" fill="#3A2C6D"/>
<path d="M114.34 161.212L116.937 162.717C117.156 162.717 117.112 163.044 116.937 163.175L114.471 164.616C114.34 164.675 114.199 164.705 114.056 164.705C113.913 164.705 113.772 164.675 113.641 164.616L111.065 163.154C110.847 163.023 110.869 162.804 111.065 162.673L113.554 161.233C113.682 161.168 113.825 161.134 113.969 161.134C114.113 161.134 114.255 161.168 114.383 161.233" fill="#3A2C6D"/>
<path d="M110.673 159.095L113.248 160.688C113.445 160.819 113.423 161.037 113.248 161.168L110.76 162.608C110.631 162.673 110.489 162.707 110.345 162.707C110.201 162.707 110.059 162.673 109.93 162.608L107.333 161.124C107.136 160.993 107.158 160.775 107.333 160.644L109.821 159.204C109.95 159.139 110.092 159.105 110.236 159.105C110.38 159.105 110.522 159.139 110.651 159.204" fill="#3A2C6D"/>
<path d="M106.983 156.978L109.581 158.462C109.799 158.593 109.778 158.811 109.581 158.942L107.093 160.382C106.964 160.448 106.822 160.482 106.678 160.482C106.534 160.482 106.392 160.448 106.263 160.382L103.665 158.899C103.469 158.768 103.491 158.549 103.665 158.419L106.154 156.978C106.279 156.913 106.417 156.879 106.558 156.879C106.698 156.879 106.837 156.913 106.962 156.978" fill="#3A2C6D"/>
<path d="M103.316 154.84L105.914 156.345C106.132 156.476 106.11 156.673 105.914 156.826L103.447 158.266C103.319 158.331 103.177 158.365 103.032 158.365C102.888 158.365 102.746 158.331 102.618 158.266L100.02 156.76C99.8017 156.651 99.8235 156.433 100.02 156.28L102.487 154.862C102.616 154.798 102.758 154.765 102.901 154.765C103.045 154.765 103.187 154.798 103.316 154.862" fill="#3A2C6D"/>
<path d="M99.6489 152.723L102.334 154.142C102.552 154.273 102.509 154.469 102.334 154.622L99.8672 156.04C99.7398 156.109 99.5973 156.145 99.4525 156.145C99.3077 156.145 99.1651 156.109 99.0377 156.04L96.4401 154.534C96.2218 154.425 96.2436 154.207 96.4401 154.054L98.9286 152.636C99.0576 152.572 99.1995 152.539 99.3433 152.539C99.4871 152.539 99.629 152.572 99.7581 152.636" fill="#3A2C6D"/>
<path d="M95.9817 150.607L98.5793 152.112C98.7758 152.221 98.7539 152.44 98.5793 152.592L96.0908 154.011C95.9618 154.074 95.8199 154.107 95.6761 154.107C95.5322 154.107 95.3903 154.074 95.2613 154.011L92.6637 152.505C92.4672 152.374 92.489 152.178 92.6637 152.025L95.1522 150.607C95.2796 150.538 95.4221 150.502 95.5669 150.502C95.7117 150.502 95.8542 150.538 95.9817 150.607Z" fill="#3A2C6D"/>
<path d="M87.7522 145.872L94.8902 149.996C95.1085 150.105 95.0867 150.323 94.8902 150.476L92.4017 151.894C92.2727 151.958 92.1308 151.991 91.987 151.991C91.8431 151.991 91.7012 151.958 91.5722 151.894L84.4342 147.77C84.2159 147.639 84.2377 147.421 84.4342 147.29L86.9227 145.85C87.0512 145.785 87.1933 145.751 87.3374 145.751C87.4815 145.751 87.6236 145.785 87.7522 145.85" fill="#3A2C6D"/>
<path d="M136.387 173.933L139.923 175.984C140.142 176.093 140.12 176.311 139.923 176.442L137.457 177.883C137.326 177.942 137.185 177.972 137.042 177.972C136.899 177.972 136.757 177.942 136.627 177.883L133.025 175.962C132.807 175.831 132.829 175.613 133.025 175.482L135.514 174.042C135.642 173.977 135.784 173.943 135.929 173.943C136.073 173.943 136.215 173.977 136.343 174.042" fill="#3A2C6D"/>
<path d="M73.3669 154.142L125.538 184.254C125.756 184.385 125.734 184.582 125.538 184.734L124.294 185.454C124.169 185.519 124.031 185.553 123.89 185.553C123.749 185.553 123.611 185.519 123.486 185.454L71.2932 155.342C71.0967 155.342 71.1185 155.014 71.2932 154.862L72.5374 154.163C72.6664 154.1 72.8084 154.067 72.9522 154.067C73.096 154.067 73.2379 154.1 73.3669 154.163" fill="#3A2C6D"/>
<path d="M135.077 156.127L134.75 156.324L125.756 161.517L109.778 152.287L109.45 152.112L118.771 146.723L135.077 156.127Z" fill="#BFBFBF"/>
<path d="M134.728 156.324L125.756 161.517L109.778 152.287L118.771 147.115L134.728 156.324Z" fill="#E5E5E5"/>
<path d="M160.704 168.238V169.045C160.705 169.62 160.554 170.185 160.266 170.683C159.979 171.181 159.565 171.594 159.067 171.882L127.415 190.146C126.913 190.431 126.345 190.581 125.767 190.581C125.189 190.581 124.622 190.431 124.119 190.146L66.8401 157.087C66.3405 156.802 65.9257 156.389 65.6381 155.89C65.3505 155.392 65.2003 154.826 65.2029 154.251V153.443L125.756 188.357L160.704 168.238Z" fill="#E5E5E5"/>
<path d="M125.756 188.422V190.604C125.185 190.604 124.622 190.461 124.119 190.19L66.8401 157.087C66.338 156.803 65.92 156.39 65.6287 155.892C65.3373 155.394 65.1829 154.828 65.1811 154.251V153.443L125.756 188.422Z" fill="#E5E5E5"/>
<path d="M124.839 188.902C124.298 189.109 123.718 189.192 123.14 189.147C122.562 189.102 122.002 188.929 121.5 188.64L64.4607 155.713C63.9665 155.427 63.5406 155.036 63.2126 154.569C62.8846 154.102 62.6625 153.569 62.5616 153.007L56.3186 115.781C56.2975 115.57 56.2975 115.358 56.3186 115.148C56.316 114.111 56.724 113.114 57.4537 112.377L116.741 146.592C117.104 146.807 117.417 147.097 117.658 147.444C117.899 147.79 118.063 148.184 118.138 148.599L124.839 188.902Z" fill="#F4F4F4"/>
<path d="M125.756 188.422L125.363 188.64L124.839 188.902L118.094 148.599C118.019 148.184 117.855 147.79 117.614 147.444C117.373 147.097 117.06 146.807 116.697 146.592L57.41 112.377C57.6474 112.15 57.9112 111.952 58.1958 111.788L117.614 146.068C117.981 146.278 118.297 146.568 118.538 146.915C118.78 147.262 118.941 147.658 119.011 148.075L125.756 188.422Z" fill="#E5E5E5"/>
</g>
<defs>
<clipPath id="clip0_35_525">
<rect width="1089" height="686" fill="white"/>
</clipPath>
</defs>
</svg>
