<svg width="769" height="785" viewBox="0 0 769 785" fill="none" xmlns="http://www.w3.org/2000/svg">
<g clip-path="url(#clip0_52_257)">
<path opacity="0.15" d="M113.061 570.773C175.504 570.773 226.123 541.581 226.123 505.571C226.123 469.561 175.504 440.369 113.061 440.369C50.6193 440.369 0 469.561 0 505.571C0 541.581 50.6193 570.773 113.061 570.773Z" fill="#D6D8E5"/>
<path opacity="0.5" d="M111.757 534.962C146.585 534.962 174.818 518.682 174.818 498.601C174.818 478.519 146.585 462.239 111.757 462.239C76.9287 462.239 48.6951 478.519 48.6951 498.601C48.6951 518.682 76.9287 534.962 111.757 534.962Z" fill="#EDEFF9"/>
<path d="M111.159 496.073C121.09 496.073 129.141 491.427 129.141 485.695C129.141 479.964 121.09 475.318 111.159 475.318C101.228 475.318 93.1777 479.964 93.1777 485.695C93.1777 491.427 101.228 496.073 111.159 496.073Z" fill="#EDEFF9"/>
<path d="M129.047 348.116H94.4668V483.858H129.047V348.116Z" fill="#EDEFF9"/>
<path d="M92.8164 346.578C92.8164 346.578 93.7595 374.492 113.643 424.559C113.643 424.559 132.159 384.242 134.077 345.73C135.994 307.218 92.8164 346.578 92.8164 346.578Z" fill="#FFBC00"/>
<path d="M68.5315 241.482L22.5242 286.195L17.0542 344.584L72.6968 316.716L82.8194 245.501L68.5315 241.482Z" fill="#8C50FF"/>
<path d="M158.754 241.482L204.746 286.195L210.232 344.584L154.385 314.785L144.467 245.501L158.754 241.482Z" fill="#8C50FF"/>
<path d="M113.061 353.627C125.692 353.627 135.932 347.722 135.932 340.439C135.932 333.155 125.692 327.251 113.061 327.251C100.431 327.251 90.1914 333.155 90.1914 340.439C90.1914 347.722 100.431 353.627 113.061 353.627Z" fill="#424956"/>
<path d="M78.387 327.251V315.382H147.657V327.69L78.387 327.251Z" fill="#494949"/>
<path d="M113.061 347.237C132.212 347.237 147.736 338.282 147.736 327.235C147.736 316.188 132.212 307.233 113.061 307.233C93.9113 307.233 78.387 316.188 78.387 327.235C78.387 338.282 93.9113 347.237 113.061 347.237Z" fill="#2B303F"/>
<path d="M112.951 333.625C136.321 333.625 155.265 322.702 155.265 309.227C155.265 295.753 136.321 284.829 112.951 284.829C89.5824 284.829 70.6379 295.753 70.6379 309.227C70.6379 322.702 89.5824 333.625 112.951 333.625Z" fill="#EDEFF9"/>
<path d="M158.644 265.77C158.644 267.732 158.644 269.663 158.644 271.531C158.644 273.101 158.644 274.671 158.644 276.241C158.644 278.361 158.534 280.386 158.456 282.364C158.456 284.829 158.283 287.169 158.157 289.414C158.031 291.659 157.921 293.857 157.764 295.882C157.12 304.753 157.135 311.284 156.035 313.843C150.047 327.832 129.786 320.123 119.789 315.099C116.095 313.246 113.659 311.723 113.659 311.723H112.747C112.747 311.723 109.855 313.293 105.58 314.989C95.0955 319.228 76.4065 326.748 71.2195 313.796C70.2921 311.472 69.3647 303.795 68.7989 295.757C68.6574 293.747 68.5317 291.596 68.4059 289.304C68.2802 287.012 68.2173 284.735 68.123 282.27C68.123 280.308 68.013 278.282 67.9658 276.179C67.9658 274.609 67.9658 273.039 67.9658 271.469V265.707C67.6829 210.929 73.4986 123.339 92.7063 85.9574C98.2549 75.1401 104.919 68.5304 112.889 68.1379H113.8C121.659 68.5461 128.403 75.1244 133.967 85.8946C152.907 123.135 158.99 210.38 158.644 265.77Z" fill="#EDEFF9"/>
<path d="M113.171 214.117C122 214.117 129.157 206.968 129.157 198.15C129.157 189.331 122 182.183 113.171 182.183C104.343 182.183 97.186 189.331 97.186 198.15C97.186 206.968 104.343 214.117 113.171 214.117Z" fill="#2B303F"/>
<path d="M113.171 216.456C109.547 216.456 106.003 215.382 102.989 213.371C99.9753 211.359 97.6263 208.5 96.2391 205.155C94.8519 201.81 94.489 198.129 95.1962 194.578C95.9033 191.027 97.6489 187.765 100.212 185.205C102.775 182.645 106.041 180.902 109.596 180.195C113.151 179.489 116.836 179.851 120.185 181.237C123.534 182.623 126.396 184.969 128.41 187.979C130.424 190.99 131.499 194.529 131.499 198.15C131.495 203.004 129.563 207.657 126.126 211.09C122.69 214.522 118.031 216.452 113.171 216.456ZM113.171 184.522C110.472 184.519 107.833 185.316 105.587 186.811C103.342 188.307 101.59 190.434 100.555 192.924C99.5203 195.414 99.2479 198.154 99.7726 200.799C100.297 203.443 101.595 205.873 103.503 207.78C105.41 209.688 107.841 210.987 110.488 211.514C113.135 212.041 115.879 211.772 118.373 210.741C120.867 209.71 122.999 207.964 124.499 205.722C125.999 203.481 126.799 200.846 126.799 198.15C126.795 194.539 125.358 191.078 122.804 188.524C120.25 185.969 116.786 184.53 113.171 184.522Z" fill="#424956"/>
<path d="M113.171 167.174C122 167.174 129.157 160.025 129.157 151.207C129.157 142.388 122 135.24 113.171 135.24C104.343 135.24 97.186 142.388 97.186 151.207C97.186 160.025 104.343 167.174 113.171 167.174Z" fill="#2B303F"/>
<path d="M113.171 169.56C109.544 169.563 105.997 168.492 102.979 166.482C99.9616 164.472 97.608 161.613 96.2163 158.268C94.8246 154.922 94.4573 151.239 95.1608 147.685C95.8642 144.131 97.6069 140.864 100.168 138.299C102.73 135.734 105.996 133.985 109.552 133.273C113.109 132.561 116.797 132.919 120.15 134.3C123.503 135.682 126.371 138.025 128.391 141.034C130.411 144.044 131.493 147.584 131.499 151.207C131.503 156.067 129.575 160.731 126.138 164.172C122.702 167.614 118.038 169.552 113.171 169.56ZM113.171 137.626C110.472 137.623 107.832 138.42 105.586 139.916C103.34 141.412 101.588 143.541 100.554 146.031C99.5192 148.522 99.2477 151.264 99.7736 153.909C100.3 156.553 101.599 158.983 103.508 160.89C105.417 162.797 107.85 164.095 110.498 164.62C113.146 165.146 115.89 164.874 118.384 163.841C120.878 162.808 123.008 161.058 124.506 158.815C126.004 156.572 126.802 153.935 126.799 151.238C126.801 149.448 126.45 147.676 125.767 146.022C125.083 144.368 124.08 142.864 122.814 141.597C121.549 140.33 120.046 139.325 118.391 138.638C116.737 137.951 114.963 137.597 113.171 137.595V137.626Z" fill="#424956"/>
<path d="M158.644 297.342C158.644 299.305 158.644 301.236 158.644 303.12C157.073 308.301 152.797 313.262 145.85 317.25C127.837 327.628 98.695 327.628 80.6033 317.25C73.6558 313.231 69.3961 308.254 67.8086 303.12V297.358C69.3804 302.633 73.6244 307.657 80.6661 311.723C98.695 322.101 127.9 322.101 145.913 311.723C152.813 307.61 157.183 302.602 158.644 297.342Z" fill="#8C50FF"/>
<path d="M158.503 306.48C158.503 308.584 158.393 310.625 158.314 312.587C156.554 317.485 152.373 322.148 145.74 325.948C127.727 336.341 98.585 336.341 80.4933 325.948C73.8759 322.117 69.6948 317.423 67.9187 312.493C67.9187 310.53 67.8086 308.505 67.7615 306.417C69.3333 311.535 73.6244 316.402 80.4775 320.359C98.5064 330.752 127.711 330.752 145.724 320.359C152.609 316.418 156.853 311.567 158.503 306.48Z" fill="#8C50FF"/>
<path d="M158.016 290.262C156.114 294.862 152.027 299.242 145.787 302.822C127.774 313.199 98.6321 313.199 80.5404 302.822C74.2531 299.179 70.1663 294.783 68.2644 290.136C68.3902 292.428 68.5159 294.579 68.6574 296.589C70.685 300.922 74.646 305.004 80.5404 308.411C88.2285 312.595 96.7109 315.12 105.438 315.821C110.141 316.278 114.875 316.315 119.585 315.931C128.741 315.353 137.662 312.786 145.724 308.411C151.571 305.035 155.516 301 157.56 296.714L158.016 290.262Z" fill="#8C50FF"/>
<path d="M133.684 85.9261C120.24 90.0477 105.867 90.0477 92.4233 85.9261C97.9719 75.1088 104.636 68.4991 112.606 68.1066H113.517C121.455 68.5776 128.12 75.1559 133.684 85.9261Z" fill="#8C50FF"/>
<path d="M117.557 241.607H109.713V344.458H117.557V241.607Z" fill="#8C50FF"/>
<path opacity="0.4" d="M489.466 600.023L398.301 547.443C391.715 543.644 392.548 537.019 400.14 532.638L459.209 498.585L574.188 564.886L515.119 598.955C507.511 603.335 496.037 603.806 489.466 600.023Z" fill="#D6D8E5"/>
<path d="M496.115 596.113L404.949 543.518C398.379 539.735 399.197 533.109 406.788 528.729L465.873 494.676L580.852 560.977L521.846 595.03C514.176 599.426 502.686 599.897 496.115 596.113Z" fill="#B1B4C4"/>
<path d="M580.837 560.977V557.507L575.524 560.568L580.837 560.977Z" fill="#B1B4C4"/>
<path d="M400.501 537.254V533.721L405.955 535.982L400.501 537.254Z" fill="#B1B4C4"/>
<path d="M496.115 592.628L404.949 540.049C398.379 536.249 399.197 529.639 406.788 525.259L465.873 491.19L580.852 557.507L521.846 591.56C514.176 595.941 502.686 596.427 496.115 592.628Z" fill="#D6D8E5"/>
<path d="M466.156 491.347L451.931 444.184L568.168 510.784L580.837 557.507L466.156 491.347Z" fill="#9EA1AF"/>
<path d="M577.473 559.438L580.837 557.507L575.823 553.503L577.473 559.438Z" fill="#9EA1AF"/>
<path d="M462.494 493.121L448.269 445.958L564.505 512.558L577.457 559.438L462.494 493.121Z" fill="#B1B4C4"/>
<path d="M757.62 638.99L307.622 379.453C301.335 375.811 296.195 366.045 296.195 357.646V10.0009C296.195 1.58567 301.319 -2.27653 307.622 1.36587L757.62 260.84C763.907 264.482 769.047 274.248 769.047 282.647V630.292C769 638.692 763.907 642.554 757.62 638.99Z" fill="#C4C7D6"/>
<path d="M759.883 642.507L764.866 639.634L762.713 624.876L759.883 642.507Z" fill="#C4C7D6"/>
<path d="M295.393 3.51675L300.297 0.675049L307.355 4.70995C307.355 4.70995 299.841 5.85605 299.653 5.80895C299.464 5.76185 295.393 3.51675 295.393 3.51675Z" fill="#B1B4C4"/>
<path d="M753.439 641.298L303.504 381.824C297.217 378.181 292.077 368.432 292.077 360.017V12.3715C292.077 3.97204 297.185 0.10984 303.504 3.75224L753.439 263.226C759.726 266.869 764.866 276.634 764.866 285.033V632.71C764.866 641.078 759.758 644.94 753.439 641.298Z" fill="#E4E7F2"/>
<path d="M752.653 641.753L302.702 382.279C296.415 378.637 291.275 368.871 291.275 360.472V12.8269C291.275 4.42736 296.399 0.565161 302.702 4.20756L752.653 263.76C758.94 267.387 764.08 277.152 764.08 285.567V633.118C764.08 641.533 758.956 645.396 752.653 641.753Z" fill="#D6D8E5"/>
<path d="M757.887 620.605L297.075 354.82L297.232 14.2241C297.232 10.7387 299.684 9.32574 302.702 11.0841L752.653 270.542C754.239 271.576 755.56 272.966 756.51 274.602C757.46 276.238 758.012 278.074 758.123 279.962L757.887 620.605Z" fill="white"/>
<path d="M478.967 160.266L331.341 75.1402C330.659 74.6496 330.103 74.0063 329.715 73.262C329.327 72.5177 329.12 71.693 329.109 70.8541V60.5706C329.109 59.0006 330.099 58.1685 331.341 58.875L478.967 144C479.645 144.494 480.2 145.137 480.588 145.881C480.975 146.625 481.184 147.448 481.199 148.286V158.57C481.199 160.218 480.193 160.988 478.967 160.266Z" fill="#E9EAF2"/>
<path d="M441.054 162.73L332.017 99.852C331.333 99.3664 330.773 98.7268 330.382 97.9849C329.992 97.243 329.782 96.4197 329.769 95.5816V90.4634C329.769 88.8934 330.775 88.0456 332.017 88.7678L441.054 151.646C441.729 152.138 442.279 152.78 442.661 153.521C443.043 154.263 443.246 155.083 443.255 155.917V161.035C443.255 162.683 442.28 163.453 441.054 162.73Z" fill="#E9EAF2"/>
<path d="M441.054 182.12L332.017 119.32C331.333 118.834 330.773 118.195 330.382 117.453C329.992 116.711 329.782 115.888 329.769 115.05V109.9C329.769 108.33 330.775 107.482 332.017 108.204L441.054 171.13C441.735 171.618 442.291 172.259 442.678 173C443.066 173.742 443.274 174.564 443.286 175.4V180.519C443.255 182.12 442.28 182.858 441.054 182.12Z" fill="#E9EAF2"/>
<path d="M420.479 189.687L332.017 138.662C331.333 138.177 330.773 137.537 330.382 136.795C329.992 136.053 329.782 135.23 329.769 134.392V129.274C329.769 127.704 330.775 126.856 332.017 127.578L420.479 178.588C421.163 179.077 421.722 179.72 422.112 180.464C422.502 181.208 422.713 182.034 422.727 182.874V187.992C422.727 189.64 421.721 190.394 420.479 189.687Z" fill="#8C50FF"/>
<path d="M478.967 363.989L331.341 278.863C330.659 278.373 330.103 277.73 329.715 276.985C329.327 276.241 329.12 275.416 329.109 274.577V264.294C329.109 262.645 330.099 261.892 331.341 262.598L478.967 347.724C479.645 348.217 480.2 348.861 480.588 349.604C480.975 350.348 481.184 351.171 481.199 352.01V362.293C481.199 363.942 480.193 364.695 478.967 363.989Z" fill="#E9EAF2"/>
<path d="M441.054 366.454L332.017 303.654C331.333 303.164 330.774 302.521 330.384 301.777C329.994 301.033 329.783 300.208 329.769 299.367V294.249C329.769 292.601 330.775 291.847 332.017 292.569L441.054 355.369C441.733 355.863 442.288 356.506 442.675 357.25C443.063 357.994 443.272 358.817 443.286 359.656V364.774C443.255 366.406 442.28 367.16 441.054 366.454Z" fill="#E9EAF2"/>
<path d="M441.054 385.859L332.017 322.98C331.335 322.493 330.776 321.853 330.386 321.112C329.995 320.37 329.784 319.548 329.769 318.71V313.592C329.769 312.022 330.775 311.19 332.017 311.912L441.054 374.712C441.733 375.205 442.288 375.849 442.675 376.593C443.063 377.336 443.272 378.16 443.286 378.998V384.116C443.255 385.812 442.28 386.565 441.054 385.859Z" fill="#E9EAF2"/>
<path d="M420.479 393.395L332.017 342.386C331.332 341.897 330.773 341.254 330.382 340.51C329.992 339.765 329.782 338.94 329.769 338.099V332.981C329.769 331.333 330.775 330.579 332.017 331.301L420.479 382.311C421.163 382.8 421.722 383.443 422.112 384.187C422.502 384.932 422.713 385.757 422.727 386.597V391.715C422.727 393.363 421.721 394.07 420.479 393.395Z" fill="#8C50FF"/>
<path d="M518.467 389.266C518.467 389.266 534.751 402.925 558.265 384.273C575.052 370.52 590.063 378.37 598.425 383.08C606.787 387.79 618.859 390.679 641.855 432.158C641.855 432.158 649.337 445.158 661.691 452.286C674.046 459.413 679.987 455.928 689.701 441.296C699.415 426.663 705.781 410.461 723.637 421.043V568.136L516.863 449.02V388.308L518.467 389.266Z" fill="#F5F6FF"/>
<path d="M473.528 326.905L332.064 245.265C331.38 244.776 330.821 244.133 330.431 243.389C330.041 242.644 329.83 241.819 329.816 240.979V159.449C329.816 157.879 330.822 157.047 332.064 157.754L473.528 239.393C474.212 239.883 474.771 240.526 475.161 241.27C475.551 242.014 475.762 242.84 475.776 243.68V325.241C475.776 326.858 474.77 327.612 473.528 326.905Z" fill="#E9EAF2"/>
<path d="M516.863 385.843V448.989L723.637 568.214V421.121" stroke="#E9EAF2" stroke-width="0.31" stroke-miterlimit="10"/>
<path d="M598.127 383.818V495.696" stroke="#E9EAF2" stroke-width="0.31" stroke-miterlimit="10"/>
<path d="M661.393 454.578V532.167" stroke="#E9EAF2" stroke-width="0.31" stroke-miterlimit="10"/>
<path d="M516.863 388.308C553.55 411.026 558.737 359.671 598.708 382.719C638.68 405.766 633.163 435.801 662.666 452.819C692.169 469.838 692.861 403.364 723.637 421.121" stroke="#E9EAF2" stroke-width="1.53" stroke-miterlimit="10"/>
<path d="M601.567 389.806C603.469 388.709 603.466 385.148 601.561 381.851C599.655 378.555 596.569 376.771 594.667 377.868C592.765 378.965 592.767 382.527 594.673 385.823C596.578 389.12 599.665 390.903 601.567 389.806Z" fill="#8C50FF"/>
<path d="M729.972 428.813C731.883 427.716 731.887 424.143 729.982 420.831C728.077 417.519 724.983 415.724 723.072 416.821C721.161 417.917 721.157 421.491 723.062 424.803C724.968 428.115 728.062 429.91 729.972 428.813Z" fill="#8C50FF"/>
<path d="M667.466 461.02C669.376 459.923 669.381 456.35 667.475 453.038C665.57 449.726 662.476 447.931 660.565 449.028C658.654 450.124 658.65 453.698 660.556 457.01C662.461 460.322 665.555 462.117 667.466 461.02Z" fill="#8C50FF"/>
<path d="M520.314 394.291C522.216 393.194 522.213 389.633 520.308 386.336C518.402 383.04 515.315 381.257 513.413 382.353C511.511 383.45 511.514 387.012 513.42 390.308C515.325 393.605 518.412 395.388 520.314 394.291Z" fill="#8C50FF"/>
<path d="M522.695 279.821L514.223 274.938C513.539 274.449 512.98 273.806 512.59 273.062C512.199 272.317 511.989 271.492 511.975 270.652V229.832C511.975 228.184 512.981 227.43 514.223 228.137L522.695 233.035C523.377 233.508 523.939 234.133 524.338 234.86C524.736 235.588 524.959 236.398 524.99 237.227V278.126C524.99 279.774 523.936 280.528 522.695 279.821Z" fill="#E9EAF2"/>
<path d="M542.28 291.078L533.808 286.18C533.124 285.694 532.564 285.054 532.173 284.312C531.783 283.571 531.572 282.747 531.56 281.909V198.699C531.56 197.129 532.566 196.281 533.808 197.003L542.28 201.902C542.963 202.392 543.522 203.034 543.913 203.779C544.303 204.523 544.513 205.348 544.527 206.188V289.398C544.465 291.031 543.459 291.784 542.28 291.078Z" fill="#8C50FF"/>
<path d="M581.245 313.576L572.773 308.693C572.087 308.206 571.526 307.564 571.135 306.819C570.745 306.074 570.536 305.248 570.525 304.407V229.299C570.525 227.65 571.531 226.896 572.773 227.603L581.245 232.486C581.929 232.975 582.488 233.618 582.878 234.362C583.269 235.107 583.479 235.932 583.493 236.772V311.896C583.493 313.545 582.487 314.298 581.245 313.576Z" fill="#E9EAF2"/>
<path d="M600.767 324.833L592.295 319.95C591.612 319.46 591.053 318.818 590.662 318.074C590.272 317.329 590.062 316.504 590.048 315.664V253.429C590.048 251.859 591.054 251.027 592.295 251.734L600.767 256.632C601.451 257.118 602.011 257.757 602.402 258.499C602.792 259.241 603.002 260.064 603.015 260.903V323.137C603.015 324.802 602.009 325.555 600.767 324.833Z" fill="#8C50FF"/>
<path d="M639.639 347.253L631.151 342.37C630.469 341.879 629.912 341.236 629.525 340.492C629.137 339.747 628.93 338.923 628.919 338.084V307.327C628.919 305.663 629.909 304.91 631.151 305.632L639.639 310.515C640.317 311.008 640.872 311.652 641.259 312.395C641.647 313.139 641.856 313.962 641.871 314.801V345.557C641.871 347.206 640.865 347.959 639.639 347.253Z" fill="#E9EAF2"/>
<path d="M659.145 358.509L650.736 353.611C650.052 353.125 649.492 352.486 649.101 351.744C648.711 351.002 648.501 350.179 648.488 349.341V244.732C648.488 243.067 649.494 242.314 650.736 243.036L659.208 247.919C659.892 248.408 660.452 249.05 660.842 249.794C661.233 250.539 661.443 251.364 661.456 252.205V356.814C661.393 358.462 660.387 359.216 659.145 358.509Z" fill="#8C50FF"/>
<path d="M706.755 385.969L698.283 381.07C697.599 380.585 697.039 379.945 696.649 379.203C696.258 378.461 696.048 377.638 696.036 376.8V346.028C696.036 344.379 697.042 343.626 698.283 344.332L706.755 349.231C707.442 349.718 708.003 350.36 708.393 351.105C708.784 351.85 708.993 352.676 709.003 353.517V384.273C709.003 385.922 707.997 386.675 706.755 385.969Z" fill="#E9EAF2"/>
<path d="M726.278 397.21L717.806 392.312C717.119 391.824 716.558 391.182 716.168 390.437C715.777 389.693 715.568 388.866 715.558 388.025V347.205C715.558 345.557 716.564 344.803 717.806 345.51L726.278 350.393C726.961 350.882 727.52 351.525 727.911 352.269C728.301 353.014 728.511 353.839 728.525 354.679V395.577C728.525 397.21 727.519 397.932 726.278 397.21Z" fill="#8C50FF"/>
<path opacity="0.4" d="M164.9 781.86L94.734 741.448C86.7805 736.848 87.7708 728.888 96.966 723.55L132.584 702.999C141.763 697.708 155.611 697.08 163.611 701.79L233.778 742.265C241.731 746.849 240.741 754.825 231.546 760.147L195.928 780.698C186.749 785.911 172.901 786.57 164.9 781.86Z" fill="#D6D8E5"/>
<path d="M270.354 731.416V633.589L120.528 616.743V715.182C120.433 718.197 122.1 721.07 125.872 723.205L196.038 763.679C203.992 768.264 217.887 767.683 227.066 762.392L262.684 741.841C267.855 738.858 270.433 735.011 270.276 731.416H270.354Z" fill="#D6D8E5"/>
<path d="M270.26 644.265V633.589H258.738L194.749 596.679C186.796 592.078 172.901 592.659 163.721 597.95L128.104 618.58C127.47 618.94 126.857 619.333 126.265 619.758L120.528 616.822C120.528 616.822 120.528 628.11 120.528 628.487C120.433 631.47 122.1 634.343 125.872 636.478L196.038 676.937C203.992 681.521 217.887 680.94 227.066 675.65L262.684 655.114C268.012 651.974 270.543 648.049 270.244 644.344L270.26 644.265Z" fill="#EDF0F9"/>
<path d="M196.038 665.225L125.872 624.766C117.918 620.181 118.909 612.206 128.104 606.868L163.721 586.332C172.901 581.026 186.796 580.46 194.749 585.045L264.916 625.504C272.869 630.088 271.879 638.064 262.684 643.402L227.066 663.937C217.887 669.244 203.992 669.809 196.038 665.225Z" fill="#E2E5F2"/>
<path d="M180.226 609.992V606.098H177.836L177.098 605.627C174.748 604.436 172.149 603.815 169.514 603.815C166.878 603.815 164.28 604.436 161.93 605.627C161.48 605.889 161.054 606.188 160.656 606.522L158.786 606.098V609.992C158.874 610.935 159.211 611.838 159.764 612.608C160.316 613.377 161.064 613.986 161.93 614.372C164.28 615.564 166.878 616.185 169.514 616.185C172.149 616.185 174.748 615.564 177.098 614.372C177.964 613.988 178.711 613.379 179.261 612.609C179.811 611.839 180.144 610.935 180.226 609.992Z" fill="#6E48E5"/>
<path d="M169.506 612.284C175.426 612.284 180.226 609.515 180.226 606.098C180.226 602.682 175.426 599.913 169.506 599.913C163.585 599.913 158.786 602.682 158.786 606.098C158.786 609.515 163.585 612.284 169.506 612.284Z" fill="#8C50FF"/>
<path d="M206.821 626.43C206.236 627.738 205.221 628.807 203.944 629.46C201.595 630.644 199 631.261 196.368 631.261C193.736 631.261 191.142 630.644 188.792 629.46C187.515 628.807 186.5 627.738 185.916 626.43C185.13 624.42 186.104 622.269 188.792 620.699C191.142 619.515 193.736 618.898 196.368 618.898C199 618.898 201.595 619.515 203.944 620.699C206.648 622.191 207.607 624.342 206.821 626.43Z" fill="#5E42D3"/>
<path d="M206.821 626.43C206.236 627.738 205.221 628.807 203.944 629.46C201.595 630.644 199 631.261 196.368 631.261C193.736 631.261 191.142 630.644 188.792 629.46C188.023 629.405 187.304 629.061 186.779 628.497C186.253 627.933 185.961 627.192 185.961 626.422C185.961 625.652 186.253 624.911 186.779 624.347C187.304 623.784 188.023 623.439 188.792 623.384C191.142 622.2 193.736 621.583 196.368 621.583C199 621.583 201.595 622.2 203.944 623.384C205.224 624.041 206.239 625.116 206.821 626.43Z" fill="#8C50FF"/>
<path d="M232.017 640.356V636.462H229.628L228.889 635.991C226.539 634.8 223.941 634.179 221.305 634.179C218.67 634.179 216.071 634.8 213.721 635.991C213.276 636.253 212.85 636.547 212.448 636.87L210.577 636.462V640.356C210.665 641.299 211.003 642.202 211.555 642.971C212.108 643.741 212.855 644.35 213.721 644.736C216.071 645.928 218.67 646.549 221.305 646.549C223.941 646.549 226.539 645.928 228.889 644.736C229.755 644.352 230.502 643.743 231.052 642.973C231.602 642.202 231.936 641.299 232.017 640.356Z" fill="#6E48E5"/>
<path d="M221.297 642.648C227.218 642.648 232.017 639.879 232.017 636.462C232.017 633.046 227.218 630.276 221.297 630.276C215.377 630.276 210.577 633.046 210.577 636.462C210.577 639.879 215.377 642.648 221.297 642.648Z" fill="#8C50FF"/>
<path d="M102.64 594.261C102.216 597.919 97.9247 613.713 98.7734 619.129C99.6222 624.546 114.649 633.589 114.649 633.589L116.724 624.326L108.456 616.225L110.688 600.886L102.64 594.261Z" fill="#FFCEA9"/>
<path d="M114.193 578.702C112.742 578.026 111.093 577.907 109.559 578.368C108.026 578.828 106.716 579.835 105.878 581.198C103.678 584.841 101.398 597.306 101.163 599.442C101.163 599.442 104.306 603.696 108.88 602.99L114.193 578.702Z" fill="#EDEDED"/>
<path d="M131.247 754.793C134.499 755.687 137.973 755.264 140.914 753.616C143.24 753.694 155.894 748.278 157.607 752.815C159.179 756.803 153.63 760.477 150.707 761.183C144.325 762.753 139.609 765.893 137.032 766.458C135.13 766.851 132.646 767.118 131.137 765.61C129.298 763.821 129.455 757.164 131.247 754.793Z" fill="#38226D"/>
<path d="M137.032 765.344C139.61 764.81 144.325 761.623 150.707 760.084C153.159 759.487 157.387 756.818 157.811 753.616C158.377 757.274 153.442 760.524 150.707 761.183C144.325 762.753 139.61 765.893 137.032 766.458C135.13 766.851 132.646 767.118 131.137 765.61C130.724 765.169 130.432 764.628 130.289 764.04C131.232 764.771 132.333 765.269 133.505 765.495C134.676 765.722 135.884 765.67 137.032 765.344Z" fill="#9C73FF"/>
<path d="M110.751 745.593C114 746.492 117.474 746.074 120.417 744.431C122.744 744.431 135.381 739.093 137.11 743.631C138.682 747.603 133.134 751.276 130.21 751.999C123.828 753.569 119.097 756.709 116.535 757.258C114.617 757.651 112.15 757.917 110.625 756.426C108.802 754.62 108.959 747.964 110.751 745.593Z" fill="#38226D"/>
<path d="M116.535 756.159C119.097 755.61 123.828 752.438 130.21 750.884C132.662 750.303 136.89 747.618 137.315 744.431C137.881 748.089 132.945 751.323 130.21 751.999C123.828 753.569 119.097 756.709 116.535 757.258C114.617 757.651 112.15 757.917 110.625 756.426C110.227 755.976 109.941 755.438 109.792 754.856C110.738 755.581 111.839 756.075 113.01 756.302C114.18 756.528 115.387 756.479 116.535 756.159Z" fill="#9C73FF"/>
<path d="M110.499 711.288C111.044 706.599 112.017 701.969 113.407 697.457C113.407 697.457 112.543 685.525 112.103 674.205C111.615 661.362 107.151 650.058 110.672 639.822L150.329 648.63C150.329 648.63 147.94 699.827 147.406 706.013C147.118 710.84 146.525 715.643 145.63 720.394C143.822 730.333 140.914 753.977 140.914 753.977C136.733 756.41 131.216 755.06 131.216 755.06C131.216 755.06 131.53 725.23 131.798 718.008C132.128 709.263 132.395 709.923 132.395 709.923L131.074 688.147L130.226 677.314C130.226 677.314 129.125 685.258 128.402 692.37C127.789 698.556 126.296 704.161 124.614 715.684C123.168 725.685 120.81 745.781 120.81 745.781C116.614 748.215 110.924 746.19 110.924 746.19C110.924 746.19 109.368 719.955 110.499 711.288Z" fill="#8C50FF"/>
<path d="M116.315 578.906C119.349 579.063 121.596 579.832 121.974 578.906C122.288 577.35 122.514 575.778 122.649 574.196C122.304 573.317 122.005 572.375 122.005 572.375C118.217 570.051 117.022 565.954 116.519 561.181C115.671 553.033 120.072 545.905 128.229 545.057C135.9 544.256 141.559 549.641 143.052 557.036C143.869 560.678 145.488 567.586 143.303 573.584C142.077 576.944 140.505 579.613 138.934 580.131C137.413 580.081 135.896 579.945 134.391 579.722C134.391 579.722 133.982 581.983 133.699 583.428C133.416 584.872 133.526 585.657 136.419 587.431C139.311 589.205 132.033 592.926 127.318 592.565C122.602 592.204 117.227 589.347 115.749 586.285C114.067 582.847 114.209 578.812 116.315 578.906Z" fill="#FFCEA9"/>
<path d="M120.653 579.33C119.82 581.418 121.942 584.04 127.616 585.736C133.291 587.431 133.809 585.233 133.809 585.233C137.579 586.919 141.252 588.811 144.812 590.901C148.223 593.287 149.732 600.164 150.188 611.782C150.722 625.221 150.769 645.16 150.313 648.598C150.313 648.598 144.026 654.878 135.806 654.266C127.585 653.654 113.973 646.416 110.656 640.843C110.751 629.052 112.134 627.136 110.216 620.354C105.847 604.811 103.552 598.374 105.674 588.122C107.418 579.597 109.87 578.545 113.25 578.623C115.729 578.723 118.2 578.959 120.653 579.33Z" fill="#F4F4F4"/>
<path d="M163.014 622.929C156.318 624.609 154.762 620.401 153.882 616.916C151.744 608.469 150.612 600.855 149.025 596.066C147.154 590.414 145.189 589.519 142.455 588.42C139.311 587.117 136.45 589.849 137.519 597.039C138.838 605.383 140.889 613.594 143.649 621.579C144.482 624.201 146.337 628.863 149.135 631.124C152.577 633.903 157.78 633.793 165.639 631.846C168.987 630.999 172.665 629.005 178.999 626.053C180.697 625.268 182.017 624.734 185.287 623.211C188.57 621.747 191.445 619.506 193.665 616.68C195.378 614.2 195.598 613.038 195.236 612.473C194.875 611.907 194.026 611.923 193.114 612.975C191.791 614.733 190.162 616.238 188.305 617.418C188.305 617.418 190.411 615.236 191.558 613.823C192.584 612.566 193.435 611.177 194.089 609.694C194.686 608.249 193.445 606.287 192.517 607.323C191.59 608.359 191.118 609.395 189.374 611.468C188.448 612.574 187.393 613.565 186.23 614.419C187.303 612.972 188.255 611.439 189.075 609.835C189.815 608.582 190.181 607.144 190.128 605.69C190.128 604.937 189.012 604.042 188.006 605.47C187.035 607.433 185.832 609.273 184.422 610.95C182.85 612.52 181.593 613.43 181.562 612.991C181.53 612.551 182.473 611.688 183.023 609.851C183.573 608.014 183.023 606.051 182.002 605.847C180.98 605.643 181.184 605.69 180.43 607.417C179.304 609.189 178.291 611.029 177.396 612.928C176.87 614.695 175.927 616.311 174.646 617.638C172.995 619.396 169.364 621.327 163.014 622.929Z" fill="#FFCEA9"/>
<path d="M139.971 587.258C144.435 586.599 147.594 588.609 149.559 595.36C151.524 602.111 152.907 607.59 152.907 607.59C151.144 610.135 148.473 611.91 145.441 612.551C140.097 613.854 138.179 611.295 138.179 611.295C138.179 611.295 136.702 604.23 135.774 599.41C134.847 594.59 134.454 588.075 139.971 587.258Z" fill="#EDEDED"/>
<path d="M142.769 555.984C142.769 555.984 149.811 545.277 134.533 543.094C123.53 541.524 116.441 548.589 115.671 556.267C114.885 563.599 119.412 571.213 122.665 574.228C125.873 575.043 129.269 574.634 132.191 573.081C132.378 571.088 132.451 569.086 132.411 567.084C132.411 567.084 126.988 555.78 142.769 555.984Z" fill="#3A2C6D"/>
<path opacity="0.4" d="M601.349 761.136C622.73 761.136 640.063 751.14 640.063 738.81C640.063 726.481 622.73 716.485 601.349 716.485C579.968 716.485 562.635 726.481 562.635 738.81C562.635 751.14 579.968 761.136 601.349 761.136Z" fill="#D6D8E5"/>
<path d="M601.019 523.391C602.591 520.832 614.851 519.136 618.875 529.482C620.447 533.407 620.164 543.44 621.437 549.735C622.71 556.031 625.712 559.611 626.797 564.713C627.882 569.816 626.121 578.388 613.782 579.911C601.444 581.434 591.965 577.101 589.058 573.176C586.15 569.251 586.087 560.898 589.058 556.408C592.028 551.918 594.386 548.291 594.307 542.451L601.019 523.391Z" fill="#3A2C6D"/>
<path d="M609.098 521.617C609.098 521.617 599.887 518.963 594.307 523.925C592.469 525.621 591.131 527.788 590.438 530.191C589.746 532.593 589.725 535.139 590.378 537.552C591.117 540.457 592.61 544.413 594.92 544.633C597.231 544.853 609.098 521.617 609.098 521.617Z" fill="#3A2C6D"/>
<path d="M612.619 546.69C612.619 546.69 612.006 556.926 612.195 557.68C612.383 558.433 616.219 559.25 617.303 560.066C618.388 560.882 611.723 571.354 608.344 572.893C604.964 574.432 594.48 570.491 593.741 565.294C593.081 560.49 596.744 556.769 598.158 555.466C599.119 555.375 600.086 555.349 601.05 555.387L601.365 550.426C605.955 548.966 612.619 546.69 612.619 546.69Z" fill="#FFCEA9"/>
<path d="M587.863 566.048C587.863 565.749 586.291 566.582 586.291 566.597C586.291 566.613 585.552 592.895 584.263 595.281C580.978 600.855 572.286 610.306 572.066 611.358C571.422 614.498 573.276 611.688 576.263 611.358C577.945 611.154 587.831 601.169 590.048 598.892L590.189 598.971V598.719L590.472 598.421C590.528 597.711 590.528 596.997 590.472 596.286C594.637 567.728 589.576 565.828 587.863 566.048Z" fill="#FFCEA9"/>
<path d="M614.018 558.684C616.91 559.124 620.195 560.663 620.651 562.233C621.841 567.913 621.56 573.804 619.834 579.346C617.335 585.94 615.653 590.131 614.207 592.973C614.207 592.973 601.742 598.311 591.682 592.078C591.682 592.078 590.991 585.013 590.944 581.23C581.67 573.144 589.607 563.175 597.467 555.435C598.408 555.348 599.355 555.348 600.296 555.435C600.296 555.435 593.286 563.724 598.158 568.434C608.611 565.2 610.686 560.49 614.018 558.684Z" fill="#F4F4F4"/>
<path d="M593.459 533.988C594.48 527.41 599.243 522.433 606.033 522.826C608.769 522.973 611.39 523.977 613.524 525.694C615.658 527.411 617.197 529.755 617.924 532.394C618.65 535.033 618.527 537.834 617.573 540.399C616.618 542.965 614.879 545.165 612.603 546.69C612.369 547.686 612.016 548.651 611.55 549.563C609.145 552.357 602.748 554.131 600.642 554.163C598.819 554.163 597.247 552.483 595.533 549.657C591.981 543.769 592.893 537.238 593.459 533.988Z" fill="#FFCEA9"/>
<path d="M608.155 522.951C612.871 523.878 616.832 525.228 618.136 529.891C619.016 533.125 620.18 539.311 619.079 541.838L618.388 543.707L612.619 546.69C612.619 546.69 609.916 544.445 610.764 537.866C610.731 536.979 610.448 536.119 609.947 535.386C609.586 534.763 609.316 534.091 609.145 533.392C608.461 531.615 607.122 530.166 605.404 529.341C601.113 526.939 594.826 529.011 593.946 529.891C595.161 527.284 597.235 525.173 599.821 523.91C602.407 522.647 605.349 522.309 608.155 522.951Z" fill="#3A2C6D"/>
<path d="M616.832 731.133C614.411 733.096 610.654 731.746 610.544 731.918C607.727 734.33 604.778 736.584 601.711 738.669C600.139 739.847 597.86 741.432 598.284 743.693C599.039 747.76 605.546 746.519 607.998 745.263C610.45 744.007 612.462 741.966 614.788 740.553C616.439 739.533 618.073 738.983 618.341 736.911C618.419 735.608 617.256 731.086 616.832 731.133Z" fill="#38226D"/>
<path d="M618.246 736.032C617.916 738.041 616.313 738.591 614.663 739.611C612.305 741.071 610.23 743.191 607.778 744.431C605.326 745.671 599.84 746.708 598.253 743.819C599.117 747.728 605.515 746.504 607.935 745.263C610.356 744.023 612.399 741.966 614.725 740.553C616.376 739.533 618.011 738.983 618.278 736.911C618.29 736.617 618.28 736.323 618.246 736.032Z" fill="#9C73FF"/>
<path d="M599.903 727.758C597.687 729.563 594.354 728.543 594.197 728.716C591.615 730.908 588.918 732.962 586.118 734.87C584.735 735.953 582.581 737.398 582.974 739.47C583.666 743.191 589.623 742.045 591.887 740.914C594.15 739.784 595.958 737.884 598.095 736.565C599.667 735.623 601.097 735.137 601.333 733.221C601.49 732.06 600.296 727.711 599.903 727.758Z" fill="#38226D"/>
<path d="M601.318 732.452C601.019 734.289 599.542 734.791 598.033 735.718C595.879 737.068 593.977 738.999 591.745 740.145C589.513 741.291 584.484 742.233 583.022 739.58C583.808 743.159 589.671 742.045 591.903 740.914C594.135 739.784 595.974 737.884 598.111 736.565C599.683 735.623 601.113 735.137 601.349 733.221C601.369 732.965 601.359 732.706 601.318 732.452Z" fill="#9C73FF"/>
<path d="M586.888 615.66C587.957 607.339 591.022 595.25 591.022 595.25C593.92 596.602 597.054 597.375 600.249 597.526C604.933 597.51 609.606 597.058 614.207 596.176C615.707 598.797 617.349 601.333 619.127 603.775C621.531 607.103 626.2 614.388 625.068 627.121C624.329 635.442 619.661 670.782 619.661 670.782C621.479 676.724 622.447 682.892 622.537 689.104C622.097 696.492 621.119 703.838 619.614 711.084L616.832 731.133C616.832 731.133 613.122 733.818 610.544 731.918L610.874 712.293C610.56 707.489 610.073 700.408 609.774 695.887C609.271 688.508 607.951 676.811 607.574 673.907C607.196 671.002 606.253 665.868 605.797 660.154C605.342 654.439 603.204 625.347 603.204 625.347L602.905 630.795C602.905 630.795 602.607 639.634 601.333 650.545C600.06 661.457 599.62 666.245 599.62 666.245C600.827 668.446 601.671 670.826 602.119 673.294C602.339 675.649 605.027 694.301 603.424 703.784L600.107 727.915C599.285 728.485 598.338 728.851 597.346 728.982C596.353 729.113 595.344 729.006 594.402 728.668L592.453 704.349C591.148 695.102 588.382 675.492 587.957 672.949C587.014 667.812 586.457 662.611 586.291 657.39C585.599 646.84 585.819 623.965 586.888 615.66Z" fill="#FFCEA9"/>
<path d="M614.207 592.973L621.374 607.339C621.374 607.339 632.377 623.321 620.981 664.408L623.103 677.094C623.103 677.094 601.664 690.831 587.313 677.094C587.313 677.094 582.346 639.116 584.986 621.61C586.464 611.55 588.697 601.615 591.667 591.89C591.667 591.89 595.188 595.768 613.264 593.209" fill="#8C50FF"/>
<path d="M597.467 555.435C597.467 555.435 591.777 553.692 585.725 566.299L587.988 567.649C587.988 567.649 593.946 558.669 597.467 555.435Z" fill="#EDEDED"/>
<path d="M553.031 623.745L577.52 609.537L595.093 619.663L570.604 633.888L553.031 623.745Z" fill="#F4F4F4"/>
<path d="M574.361 610.573C572.825 610.727 571.34 611.209 570.007 611.986C569.517 612.413 568.992 612.796 568.435 613.132C568.2 613.242 567.964 613.399 567.712 613.509C567.338 613.646 566.999 613.866 566.722 614.153C566.448 614.556 566.301 615.031 566.298 615.518C566.172 616.101 566.14 616.7 566.203 617.293C566.423 618.172 567.335 618.093 567.775 617.481C568.014 617.174 568.151 616.801 568.168 616.413C568.181 616.042 568.282 615.68 568.462 615.355C568.643 615.03 568.897 614.753 569.205 614.545L575.053 610.918C574.985 610.798 574.883 610.702 574.76 610.64C574.636 610.579 574.498 610.555 574.361 610.573Z" fill="#FFCEA9"/>
<path d="M620.95 566.77C620.148 563.442 617.539 564.509 615.291 562.562C610.088 569.926 613.546 589.833 614.254 591.953L594.26 604.685L592.908 605.518C590.633 607.011 588.118 608.105 585.474 608.752C583.477 608.987 582.44 611.798 580.302 612.049C580.139 612.055 579.981 612.108 579.848 612.203C579.715 612.298 579.613 612.429 579.555 612.582C579.496 612.734 579.484 612.9 579.519 613.059C579.554 613.218 579.635 613.364 579.752 613.477C580.601 614.294 582.896 613.619 584.468 611.798C584.46 611.839 584.46 611.882 584.468 611.923C584.48 612.214 584.568 612.497 584.722 612.745C584.876 612.992 585.092 613.196 585.348 613.336C585.463 613.406 585.592 613.449 585.725 613.462C585.725 613.595 585.763 613.726 585.835 613.839C585.948 614.069 586.117 614.268 586.325 614.419C586.533 614.569 586.775 614.667 587.03 614.702C587.142 615.024 587.356 615.301 587.639 615.491C587.923 615.68 588.261 615.773 588.602 615.754C589.06 615.731 589.493 615.535 589.812 615.204C591.517 614.555 593.023 613.473 594.182 612.064C595.206 611.002 596.286 609.996 597.419 609.05C602.842 606.711 619.111 599.771 619.834 598.782C620.965 597.291 622.113 571.48 620.95 566.77Z" fill="#FFCEA9"/>
<path d="M622.773 575.703C622.773 575.703 616.376 578.561 611.063 575.892L611.833 565.891C611.833 565.891 611.912 560.521 616.706 559.988C621.5 559.454 624.015 565.592 622.773 575.703Z" fill="#EDEDED"/>
</g>
<defs>
<clipPath id="clip0_52_257">
<rect width="769" height="785" fill="white"/>
</clipPath>
</defs>
</svg>
