<svg width="923" height="721" viewBox="0 0 923 721" fill="none" xmlns="http://www.w3.org/2000/svg">
<path opacity="0.4" d="M645.22 594.701L467.1 492.238C466.074 491.653 465.226 490.802 464.645 489.775C464.064 488.748 463.771 487.583 463.798 486.403C463.824 485.224 464.169 484.073 464.796 483.074C465.422 482.074 466.308 481.261 467.358 480.722L489.766 469.169C490.746 468.67 491.835 468.422 492.935 468.448C494.034 468.474 495.11 468.772 496.066 469.317L680.172 575.231C681.196 575.819 682.043 576.672 682.624 577.7C683.204 578.729 683.497 579.894 683.47 581.075C683.444 582.255 683.1 583.406 682.474 584.408C681.848 585.409 680.963 586.224 679.913 586.765L663.656 595.125C660.794 596.605 657.606 597.342 654.384 597.267C651.162 597.193 648.011 596.311 645.22 594.701Z" fill="#D6D8E5"/>
<path d="M656.137 575.415L504.323 487.864C491.392 480.482 481.028 460.551 481.028 443.425V20.379C481.028 3.25274 491.466 -4.62758 504.323 2.79136L656.137 90.5083C669.069 97.8904 679.432 117.822 679.432 134.948V557.938C679.432 574.972 668.995 582.834 656.137 575.415Z" fill="#B1B4C4"/>
<path d="M658.743 583.037L670.769 576.965L659.241 557.219L658.743 583.037Z" fill="#B1B4C4"/>
<path d="M478.719 7.0914L489.785 1.29651L487.549 17.5923L478.719 7.0914Z" fill="#B1B4C4"/>
<path d="M646.569 580.251L494.773 492.7C481.842 485.318 471.497 465.386 471.497 448.26V25.2881C471.497 8.1618 481.916 0.281482 494.773 7.70042L646.569 95.2513C659.5 102.633 669.845 122.565 669.845 139.691V562.681C669.753 579.808 659.334 587.669 646.569 580.251Z" fill="#616E84"/>
<path d="M668.127 140.78V563.733C668.127 580.878 657.708 588.74 644.851 581.339L585.329 546.994L566.856 536.327L493.055 493.788C480.123 486.406 469.778 466.475 469.778 449.33V26.3769C469.778 9.30599 480.197 1.37031 493.055 8.7708L644.851 96.3217C657.653 103.741 668.127 123.727 668.127 140.78Z" fill="#20232D"/>
<path d="M657.191 136.48V548.434C657.191 558.806 649.894 563.032 640.897 557.828L593.439 530.459L589.301 528.041L587.897 527.229L577.644 521.305L547.958 504.216L535.636 497.11L530.685 494.25L496.934 474.854C487.938 469.668 480.659 457.026 480.659 446.654V34.7002C480.659 24.31 487.938 20.1023 496.934 25.2881L556.197 59.4854V59.6515C556.452 64.0552 557.742 68.3369 559.963 72.1494C562.184 75.9618 565.274 79.1977 568.98 81.5946C576 85.5993 581.69 82.3512 581.69 74.2125C581.69 74.2125 581.69 74.0833 581.69 74.028L640.953 108.225C649.894 113.466 657.191 126.09 657.191 136.48Z" fill="white"/>
<path d="M574.626 77.6442C576.517 76.5587 576.528 73.0333 574.651 69.7701C572.773 66.5069 569.719 64.7415 567.828 65.827C565.937 66.9125 565.927 70.4378 567.804 73.7011C569.681 76.9643 572.736 78.7297 574.626 77.6442Z" fill="#2B303F"/>
<path opacity="0.1" d="M568.98 73.7695C568.383 73.38 567.886 72.8536 567.533 72.2342C567.18 71.6147 566.979 70.92 566.948 70.2077C566.948 68.9158 567.853 68.3622 568.962 69.045C569.549 69.4261 570.038 69.9409 570.388 70.5472C570.738 71.1535 570.94 71.8341 570.975 72.533C570.975 73.8987 570.07 74.4155 568.98 73.7695Z" fill="white"/>
<path d="M674.279 196.422C673.041 197.142 672.025 196.422 672.025 194.724V176.693C672.042 175.854 672.255 175.03 672.646 174.287C673.037 173.544 673.596 172.902 674.279 172.412C675.516 171.71 676.514 172.412 676.514 174.11V192.14C676.503 192.979 676.295 193.803 675.907 194.547C675.519 195.291 674.961 195.933 674.279 196.422Z" fill="#757B89"/>
<path d="M674.279 225.968C673.041 226.688 672.025 225.968 672.025 224.289V206.24C672.042 205.401 672.255 204.577 672.646 203.833C673.037 203.09 673.596 202.448 674.279 201.958C675.516 201.257 676.514 201.958 676.514 203.656V221.687C676.505 222.526 676.298 223.351 675.909 224.095C675.521 224.839 674.962 225.481 674.279 225.968Z" fill="#757B89"/>
<path opacity="0.4" d="M318.592 477.954L159.813 570.137L0 477.954L158.779 385.771L318.592 477.954Z" fill="#D6D8E5"/>
<path d="M330.84 456.398L330.803 472.251L172.024 564.434L172.061 548.563L330.84 456.398Z" fill="#D3D3DD"/>
<path d="M172.061 548.563L172.024 564.434L12.2109 472.251L12.2479 456.398L172.061 548.563Z" fill="#E0DEE9"/>
<path d="M330.84 456.398L172.061 548.563L12.2476 456.398L171.026 364.215L330.84 456.398Z" fill="#EAEAF4"/>
<path d="M306.085 216.003L305.402 453.944L171.765 531.529L172.449 293.588L306.085 216.003Z" fill="#D3D3DD"/>
<path d="M172.449 293.588L171.765 531.529L37.2607 453.944L37.9258 216.003L172.449 293.588Z" fill="#E0DEE9"/>
<path d="M306.086 216.003L172.449 293.588L37.9258 216.003L171.562 138.418L306.086 216.003Z" fill="#EAEAF4"/>
<path d="M72.6 320.034L72.5261 344.708L51.0601 332.325L51.1155 307.651L72.6 320.034Z" fill="#2A313F"/>
<path d="M72.6928 285.726L72.6374 310.382L51.1528 297.999L51.2267 273.343L72.6928 285.726Z" fill="#2A313F"/>
<path d="M72.8041 251.4L72.7302 276.074L51.2456 263.691L51.3195 239.016L72.8041 251.4Z" fill="#2A313F"/>
<path d="M159.388 404.484L159.333 429.159L82.2617 384.701L82.3171 360.026L159.388 404.484Z" fill="#2A313F"/>
<path d="M159.499 370.158L159.425 394.832L82.3545 350.374L82.4284 325.7L159.499 370.158Z" fill="#2A313F"/>
<path d="M159.592 335.85L159.518 360.506L82.4468 316.048L82.5207 291.392L159.592 335.85Z" fill="#2A313F"/>
<path d="M159.684 301.524L159.61 326.198L82.5576 281.74L82.613 257.065L159.684 301.524Z" fill="#2A313F"/>
<path d="M72.4154 388.668L72.3415 413.343L50.8569 400.96L50.9308 376.285L72.4154 388.668Z" fill="#2A313F"/>
<path d="M72.5082 354.36L72.4343 379.035L50.9497 366.651L51.0236 341.977L72.5082 354.36Z" fill="#2A313F"/>
<path d="M159.296 438.792L159.222 463.467L82.1509 419.009L82.2248 394.334L159.296 438.792Z" fill="#2A313F"/>
<path d="M206.366 323.725L206.44 348.4L184.956 360.783L184.882 336.108L206.366 323.725Z" fill="#2A313F"/>
<path d="M206.274 289.399L206.348 314.073L184.845 326.456L184.79 301.8L206.274 289.399Z" fill="#2A313F"/>
<path d="M293.542 376.562L293.616 401.218L216.545 445.676L216.471 421.02L293.542 376.562Z" fill="#2A313F"/>
<path d="M293.45 342.254L293.505 366.91L216.453 411.368L216.379 386.694L293.45 342.254Z" fill="#2A313F"/>
<path d="M293.339 307.927L293.413 332.583L216.342 377.042L216.268 352.386L293.339 307.927Z" fill="#2A313F"/>
<path d="M293.247 273.62L293.321 298.275L216.25 342.734L216.176 318.059L293.247 273.62Z" fill="#2A313F"/>
<path d="M293.154 239.293L293.228 263.949L216.157 308.407L216.083 283.733L293.154 239.293Z" fill="#2A313F"/>
<path d="M206.662 426.686L206.736 451.342L185.233 463.725L185.177 439.069L206.662 426.686Z" fill="#2A313F"/>
<path d="M206.569 392.359L206.643 417.034L185.14 429.417L185.066 404.743L206.569 392.359Z" fill="#2A313F"/>
<path d="M206.459 358.052L206.533 382.707L185.048 395.091L184.974 370.435L206.459 358.052Z" fill="#2A313F"/>
<path d="M305.457 434.751L305.402 453.944L171.784 531.529L171.821 511.874L305.457 434.751Z" fill="#9052FE"/>
<path d="M171.821 511.874L171.765 531.529L37.2607 453.944L37.3162 434.289L171.821 511.874Z" fill="#9052FE"/>
<path d="M170.934 219.159C171.452 219.159 171.95 219.159 172.449 219.159L180.097 223.551C174.634 225.202 168.805 225.202 163.342 223.551L170.934 219.159Z" fill="#2A313F"/>
<path d="M137.719 191.181C157.209 181.769 185.75 181.769 205.35 191.181L198.46 195.186C182.72 187.933 160.294 187.933 144.665 195.186L137.719 191.181Z" fill="#2A313F"/>
<path d="M149.634 197.991C163.765 192.252 179.581 192.252 193.712 197.991L186.766 202.014C177.039 198.416 166.344 198.416 156.617 202.014L149.634 197.991Z" fill="#2A313F"/>
<path d="M163.231 205.889C168.699 204.229 174.537 204.229 180.005 205.889L172.412 210.3C171.896 210.263 171.377 210.263 170.86 210.3L163.231 205.889Z" fill="#2A313F"/>
<path d="M179.303 215.172C179.349 214.879 179.349 214.58 179.303 214.286L186.895 209.876C187.57 210.49 188.11 211.238 188.479 212.072C188.848 212.906 189.038 213.808 189.038 214.72C189.038 215.632 188.848 216.534 188.479 217.368C188.11 218.203 187.57 218.951 186.895 219.565L179.303 215.172Z" fill="#2A313F"/>
<path d="M193.675 223.385C199.863 218.162 199.826 211.186 193.675 205.945L200.621 201.922C210.578 209.414 210.633 219.934 200.75 227.427L193.675 223.385Z" fill="#2A313F"/>
<path d="M149.634 206C143.446 211.241 143.501 218.218 149.745 223.44L142.799 227.482C132.842 219.989 132.787 209.47 142.652 201.977L149.634 206Z" fill="#2A313F"/>
<path d="M205.535 230.287C218.004 221.226 217.912 208.233 205.369 199.172L212.259 195.167C228.571 206.461 228.682 222.997 212.481 234.292L205.535 230.287Z" fill="#2A313F"/>
<path d="M144.887 234.273C160.608 241.508 183.034 241.508 198.681 234.273L205.609 238.278C186.138 247.69 157.578 247.69 137.996 238.278L144.887 234.273Z" fill="#2A313F"/>
<path d="M137.793 199.172C125.342 208.233 125.416 221.207 137.978 230.287L131.161 234.292C114.83 222.997 114.738 206.461 130.921 195.167L137.793 199.172Z" fill="#2A313F"/>
<path d="M156.673 227.427C166.393 231.025 177.083 231.025 186.803 227.427L193.805 231.468C179.674 237.207 163.858 237.207 149.727 231.468L156.673 227.427Z" fill="#2A313F"/>
<path d="M164.007 214.286C163.961 214.58 163.961 214.879 164.007 215.172L156.414 219.583C155.739 218.967 155.199 218.218 154.83 217.382C154.461 216.546 154.27 215.643 154.27 214.729C154.27 213.816 154.461 212.912 154.83 212.077C155.199 211.241 155.739 210.491 156.414 209.876L164.007 214.286Z" fill="#2A313F"/>
<path d="M617.011 376.34C619.157 377.726 620.945 379.598 622.229 381.805C623.513 384.011 624.257 386.489 624.401 389.037V401.605C624.401 406.275 621.075 408.157 617.011 405.795L516.442 347.809C514.296 346.423 512.509 344.551 511.225 342.345C509.941 340.138 509.196 337.66 509.053 335.112V322.544C509.053 317.875 512.396 315.992 516.442 318.336L617.011 376.34Z" fill="#D5D7E2"/>
<path opacity="0.4" d="M405.38 662.357C444.119 662.357 475.523 644.246 475.523 621.904C475.523 599.562 444.119 581.45 405.38 581.45C366.641 581.45 335.236 599.562 335.236 621.904C335.236 644.246 366.641 662.357 405.38 662.357Z" fill="#D6D8E5"/>
<path d="M347.3 306.839C346.468 314.073 337.823 345.299 339.67 355.985C341.518 366.67 371.075 384.59 371.075 384.59L375.176 366.264L358.809 350.263L363.242 319.942L347.3 306.839Z" fill="#FFCEA9"/>
<path d="M370.115 276.056C367.241 274.729 363.98 274.502 360.95 275.417C357.919 276.332 355.33 278.325 353.673 281.02C349.332 288.217 344.824 312.873 344.437 317.081C344.437 317.081 350.533 325.497 359.677 324.094L370.115 276.056Z" fill="#EDEDED"/>
<path d="M403.847 624.211C410.298 626.011 417.201 625.182 423.041 621.904C427.659 622.051 452.598 611.366 456.034 620.335C459.008 628.197 448.183 635.468 442.401 636.944C429.783 639.99 420.454 646.283 415.374 647.353C411.68 648.147 406.71 648.663 403.699 645.711C400.004 642.075 400.318 628.898 403.847 624.211Z" fill="#38226D"/>
<path d="M415.282 645.102C420.362 644.031 429.691 637.72 442.308 634.693C447.167 633.512 455.517 628.215 456.348 621.904C457.475 629.138 447.703 635.56 442.308 636.871C429.691 639.916 420.362 646.209 415.282 647.279C411.587 648.073 406.618 648.59 403.607 645.637C402.83 644.77 402.267 643.733 401.962 642.61C403.834 644.035 406.013 645.003 408.326 645.435C410.639 645.868 413.021 645.754 415.282 645.102Z" fill="#9C73FF"/>
<path d="M363.316 606.032C369.733 607.802 376.59 606.974 382.399 603.725C387.018 603.873 411.957 593.169 415.393 602.157C418.367 610.019 407.56 617.29 401.778 618.766C389.142 621.811 379.813 628.105 374.733 629.175C371.038 629.969 366.069 630.485 363.058 627.514C359.474 623.86 359.788 610.72 363.316 606.032Z" fill="#38226D"/>
<path d="M374.751 626.923C379.832 625.853 389.161 619.541 401.796 616.515C406.637 615.334 414.986 610.037 415.818 603.725C416.945 610.96 407.191 617.382 401.796 618.692C389.161 621.738 379.832 628.031 374.751 629.101C371.057 629.895 366.087 630.411 363.076 627.44C362.296 626.583 361.732 625.551 361.432 624.432C363.304 625.857 365.483 626.824 367.796 627.257C370.109 627.69 372.491 627.575 374.751 626.923Z" fill="#9C73FF"/>
<path d="M362.817 538.21C363.893 528.935 365.822 519.78 368.581 510.859C368.581 510.859 366.863 487.274 366.013 464.906C365.034 439.512 356.204 417.163 363.168 396.918L441.514 414.339C441.514 414.339 436.766 515.547 435.732 527.801C435.15 537.339 433.971 546.831 432.203 556.222C428.619 575.858 422.819 622.66 422.819 622.66C414.524 627.459 403.643 624.801 403.643 624.801C403.643 624.801 404.234 565.745 404.77 551.534C405.417 534.26 405.952 535.571 405.952 535.571L403.366 492.515L401.667 471.089C401.667 471.089 399.487 486.812 398.083 500.857C396.845 513.093 393.889 524.184 390.583 546.994C387.719 566.778 383.064 606.494 383.064 606.494C374.769 611.31 363.519 607.324 363.519 607.324C363.519 607.324 360.582 555.355 362.817 538.21Z" fill="#8C50FF"/>
<path d="M374.271 276.498C380.238 276.775 384.69 278.344 385.355 276.498C386.004 273.423 386.461 270.311 386.722 267.179C386.038 265.444 385.447 263.58 385.447 263.58C377.947 258.985 375.583 250.883 374.585 241.434C372.904 225.323 381.623 211.223 397.751 209.525C412.917 207.956 424.075 218.605 427.049 233.221C428.657 240.437 431.852 254.076 427.53 265.942C425.128 272.586 421.988 277.846 418.903 278.861C415.897 278.773 412.899 278.508 409.925 278.067C409.925 278.067 409.112 282.533 408.558 285.449C408.003 288.365 408.225 289.842 413.952 293.366C419.679 296.891 405.288 304.126 395.903 303.424C386.519 302.723 376.026 297.205 373.163 291.041C369.893 284.287 370.17 276.295 374.271 276.498Z" fill="#FFCEA9"/>
<path d="M382.916 277.366C381.254 281.5 385.466 286.593 396.679 290.063C407.892 293.533 408.89 289.048 408.89 289.048C408.89 289.048 425.331 296.43 430.689 300.269C437.431 304.975 440.406 318.576 441.311 341.534C442.364 368.109 442.456 407.53 441.569 414.339C441.569 414.339 428.989 426.852 412.899 425.542C396.808 424.231 369.708 409.984 363.15 399.003C363.316 375.695 366.05 371.911 362.282 358.402C353.636 327.674 349.073 315.088 353.285 294.677C356.74 277.846 361.598 275.76 368.249 275.908C373.16 276.134 378.056 276.621 382.916 277.366Z" fill="#F4F4F4"/>
<path d="M505.266 343.86C491.983 340.778 474.711 339.246 468.818 335.259C454.556 325.607 442.825 315.882 434.18 310.899C423.983 305.012 419.918 306.267 414.413 308.241C407.948 310.585 407.449 318.244 418.496 327.453C431.575 338.323 441.92 344.93 459.858 355.597C464.55 358.384 516.719 363.256 530.537 363.791C534.232 363.939 537.04 364.197 544.171 364.474C551.301 364.751 559.559 363.367 564.805 360.561C570.052 357.756 571.511 355.911 571.4 354.6C571.271 352.958 569.756 352.533 567.207 353.548C563.293 355.444 559.069 356.62 554.737 357.018C554.737 357.018 560.427 355.173 563.715 353.641C566.655 352.354 569.407 350.678 571.899 348.658C574.264 346.665 573.839 342.106 571.253 343.121C568.666 344.136 566.911 345.52 562.016 347.606C559.416 348.718 556.694 349.517 553.906 349.987C557.13 348.394 560.219 346.542 563.143 344.45C565.56 342.908 567.484 340.704 568.685 338.102C569.294 336.736 568.223 334.189 565.175 335.813C562.422 337.253 559.633 340.242 553.906 342.199C549.786 343.601 546.683 344.044 547.015 343.214C547.348 342.383 549.823 341.756 552.447 339.024C555.07 336.293 555.864 332.344 554.294 331.052C552.724 329.76 552.982 330.037 549.99 332.325C546.997 334.614 543.616 335.721 539.663 339.283C537.146 341.936 534.02 343.937 530.556 345.115C526.011 346.665 517.883 346.775 505.266 343.86Z" fill="#FFCEA9"/>
<path d="M408.946 302.594C415.208 296.227 422.579 295.655 433.737 303.96C444.895 312.264 453.688 319.37 453.688 319.37C453.942 325.494 451.84 331.483 447.814 336.108C440.923 344.487 434.882 342.752 434.882 342.752C434.882 342.752 424.094 333.359 416.889 326.844C409.685 320.329 401.205 310.437 408.946 302.594Z" fill="#EDEDED"/>
<path d="M426.606 231.154C426.606 231.154 440.554 209.986 410.35 205.668C388.57 202.567 374.567 216.538 372.96 231.726C371.408 246.214 380.349 261.255 386.796 267.234C389.937 268.36 396.716 269.08 405.62 264.964C405.973 261.019 406.109 257.057 406.027 253.097C406.027 253.097 395.423 230.767 426.606 231.154Z" fill="#3A2C6D"/>
<g opacity="0.4">
<path opacity="0.4" d="M890.418 665.144C912.272 677.749 930.819 676.438 910.572 691.332C858.588 729.552 833.593 723.425 811.739 710.82L716.638 655.953C694.766 643.348 707.845 615.352 729.57 602.784C751.294 590.216 773.444 597.672 795.316 610.295L890.418 665.144Z" fill="#D6D8E5"/>
</g>
<path d="M922.856 524.203C922.856 524.775 922.764 525.365 922.653 525.956C922.56 526.435 922.443 526.909 922.302 527.377C922.154 527.93 922.025 528.484 921.822 529.038C921.619 529.591 921.452 529.942 921.249 530.403C921.046 530.865 920.75 531.566 920.436 532.138C920.122 532.71 919.938 532.969 919.697 533.375C919.457 533.781 918.866 534.685 918.386 535.312C917.905 535.94 917.444 536.549 916.908 537.158C916.779 537.287 916.668 537.435 916.538 537.582C915.818 538.376 915.024 539.133 914.192 539.889C913.657 540.369 913.065 540.831 912.474 541.31C911.883 541.79 911.477 542.141 910.923 542.528C910.368 542.916 909.592 543.433 908.909 543.876C908.225 544.319 907.542 544.798 906.784 545.223C905.078 546.206 903.32 547.1 901.52 547.899L899.931 548.563C898.515 549.178 897.055 549.732 895.553 550.224C895.017 550.409 894.481 550.612 893.945 550.778C893.003 551.073 892.098 551.332 891.064 551.608C890.029 551.885 889.623 552.014 888.865 552.199C888.108 552.383 886.815 552.642 885.78 552.845C885.078 552.992 884.395 553.159 883.674 553.269C881.587 553.638 879.462 553.934 877.338 554.155L875.343 554.321C874.087 554.432 872.83 554.524 871.648 554.58C870.854 554.58 870.041 554.58 869.228 554.58C868.415 554.58 867.196 554.58 866.18 554.58C865.164 554.58 864.462 554.58 863.612 554.58C862.762 554.58 861.765 554.58 860.786 554.432L858.199 554.229L855.428 553.915L852.935 553.565L849.96 553.048L847.651 552.586C846.487 552.328 845.342 552.033 844.197 551.738L842.349 551.221C840.299 550.612 838.304 549.947 836.364 549.191C835.403 548.822 834.517 548.416 833.556 548.01C833.076 547.788 832.577 547.604 832.115 547.382C830.711 546.699 829.326 545.998 828.014 545.241L732.876 490.374C721.884 484.026 716.398 475.703 716.416 467.379L716.01 616.109C716.01 624.432 721.552 632.718 732.47 639.085L827.441 693.989C828.771 694.746 830.138 695.447 831.542 696.112C832.004 696.333 832.521 696.536 833.002 696.739C833.833 697.108 834.646 697.496 835.496 697.828L835.791 697.939C837.731 698.695 839.726 699.36 841.777 699.95L842.257 700.116L843.698 700.467C844.843 700.762 845.989 701.057 847.152 701.316C847.466 701.316 847.762 701.482 848.076 701.537L849.48 701.777C850.459 701.962 851.438 702.146 852.436 702.294L853.618 702.497C854.043 702.497 854.486 702.589 854.93 702.645C855.853 702.774 856.777 702.866 857.719 702.958L859.031 703.106H860.287L863.113 703.254H864.536H870.244H871.149C872.424 703.254 873.662 703.106 874.844 703.014L876.377 702.903H876.839C878.982 702.682 881.088 702.386 883.194 702.017H883.49C884.099 701.906 884.672 701.74 885.337 701.63C886.371 701.433 887.406 701.211 888.44 700.965L890.62 700.375C891.581 700.116 892.56 699.858 893.502 699.563L894.112 699.378C894.463 699.267 894.758 699.12 895.109 699.009C896.599 698.492 898.059 697.939 899.487 697.348L901.095 696.665C902.942 695.853 904.679 694.967 906.36 694.008L907.025 693.602C907.542 693.288 907.985 692.956 908.466 692.642C908.946 692.328 909.851 691.775 910.479 691.313C911.107 690.852 911.532 690.483 912.031 690.077C912.53 689.671 913.213 689.154 913.749 688.656L914.1 688.379C914.802 687.714 915.467 687.05 916.095 686.367L916.465 685.924C916.834 685.5 917.222 685.094 917.554 684.669C917.887 684.245 917.795 684.282 917.942 684.097C918.423 683.451 918.848 682.805 919.254 682.141C919.42 681.883 919.642 681.606 919.79 681.329C919.868 681.193 919.936 681.051 919.993 680.905C920.298 680.343 920.569 679.763 920.806 679.17C920.954 678.838 921.157 678.505 921.286 678.173C921.415 677.841 921.286 677.933 921.286 677.823C921.489 677.269 921.619 676.697 921.766 676.143C921.897 675.774 922.008 675.398 922.099 675.017C922.099 674.925 922.099 674.833 922.099 674.722C922.099 674.132 922.247 673.559 922.284 672.969C922.321 672.378 922.413 672.212 922.431 671.825V671.326L922.856 522.615C922.882 523.144 922.882 523.674 922.856 524.203Z" fill="#D5D7E2"/>
<path d="M906.545 499.639C928.38 512.244 928.509 532.692 906.785 545.297C885.06 557.901 849.72 557.92 827.866 545.297L732.729 490.43C710.893 477.825 710.764 457.377 732.507 444.753C754.25 432.13 789.553 432.149 811.407 444.753L906.545 499.639Z" fill="#E9EAF4"/>
<path d="M764.521 616.884L777.453 581.819C773.612 576.779 771.402 570.689 771.117 564.361C771.117 557.163 775.144 553.288 780.723 554.229C782.483 554.516 784.171 555.143 785.692 556.074C793.709 560.707 800.212 571.89 800.175 581.118C800.175 586.858 797.607 590.438 793.746 591.213L803.427 629.157L806.456 641.115L764.521 616.884Z" fill="#3A4151"/>
<path d="M773.314 611.753L786.246 576.689C782.39 571.657 780.178 565.561 779.909 559.23C779.892 557.529 780.167 555.837 780.722 554.229C782.483 554.515 784.171 555.142 785.692 556.074C793.709 560.706 800.212 571.89 800.175 581.118C800.175 586.857 797.607 590.438 793.746 591.213L803.426 629.156L773.314 611.753Z" fill="#323944"/>
<path d="M789.146 392.304C788.262 392.845 787.428 393.463 786.652 394.149L786.246 394.519C785.548 395.218 784.928 395.992 784.398 396.825L783.9 397.637L783.789 397.84C783.689 397.986 783.602 398.141 783.53 398.302C783.237 398.849 782.984 399.416 782.773 400C782.773 400 782.773 400 782.773 400.11C782.272 401.492 781.943 402.93 781.794 404.392V404.558C781.687 405.366 781.638 406.18 781.646 406.994L781.516 456.823V474.78C777.25 476.921 772.528 477.997 767.754 477.917V453.649V415.041C767.762 413.735 767.88 412.433 768.105 411.147C768.105 410.888 768.197 410.611 768.271 410.335C768.342 409.972 768.434 409.615 768.548 409.264C768.548 409.264 768.548 409.153 768.548 409.098C768.649 408.772 768.766 408.452 768.899 408.138C768.881 408.085 768.881 408.026 768.899 407.972C769.01 407.714 769.102 407.474 769.213 407.234C769.269 407.022 769.35 406.818 769.453 406.625C769.519 406.54 769.575 406.447 769.62 406.348C769.85 405.853 770.122 405.377 770.433 404.927C770.433 404.927 770.433 404.927 770.525 404.927C770.8 404.518 771.096 404.124 771.412 403.746C771.744 403.377 772.077 403.008 772.428 402.657C772.534 402.506 772.673 402.38 772.834 402.288C773.208 401.939 773.603 401.612 774.016 401.31C774.369 401.022 774.753 400.774 775.162 400.572C775.278 400.471 775.401 400.378 775.531 400.295L789.146 392.304Z" fill="#323944"/>
<path d="M890.196 467.97V469.668L890.066 518.998V537.139C885.837 539.21 881.179 540.253 876.47 540.185H876.304V515.916L876.396 477.677C876.403 475.655 876.292 473.634 876.064 471.624C875.953 470.646 875.823 469.631 875.657 468.616C875.657 468.487 875.657 468.321 875.657 468.173C875.528 467.398 875.398 466.586 875.214 465.811C875.231 465.701 875.231 465.588 875.214 465.478C874.807 463.522 874.327 461.529 873.754 459.536C873.754 459.259 873.588 459.019 873.514 458.761C873.256 457.875 872.978 457.026 872.683 456.159C872.387 455.291 871.999 454.129 871.63 453.114C871.26 452.099 870.909 451.268 870.54 450.345C870.078 449.127 869.524 447.909 868.988 446.654C868.917 446.526 868.861 446.39 868.822 446.248C868.822 446.248 868.822 446.156 868.711 446.082C867.732 443.923 866.661 441.727 865.478 439.568C865.035 438.682 864.555 437.833 864.056 436.965C863.409 435.803 862.763 434.658 862.061 433.514C861.359 432.37 860.49 431.115 859.715 429.934C859.345 429.325 858.976 428.716 858.569 428.088L858.163 427.479C858.094 427.372 858.014 427.273 857.923 427.184C855.114 423.062 852.093 419.089 848.871 415.281C848.667 415.022 848.427 414.782 848.224 414.542C846.728 412.697 845.213 411.054 843.624 409.412C843.41 409.148 843.175 408.901 842.922 408.674C842.109 407.825 841.297 406.976 840.447 406.127C839.597 405.278 838.489 404.171 837.473 403.229C835.939 401.808 834.424 400.387 832.836 399.003C830.102 396.641 827.294 394.402 824.412 392.286L822.731 391.068C819.623 388.834 816.405 386.758 813.088 384.848C811.961 384.202 810.889 383.63 809.799 383.003C808.709 382.375 807.361 381.748 806.105 381.157C805.273 380.751 804.424 380.382 803.611 380.013L802.558 379.533L801.302 379.035C799.048 378.094 796.813 377.189 794.614 376.599C794.529 376.58 794.443 376.567 794.356 376.562L793.543 376.359C793.173 376.211 792.804 376.156 792.471 376.045C792.139 375.934 791.548 375.768 791.123 375.676H791.012L790.107 375.473C789.294 375.27 788.536 375.104 787.761 374.975C787.336 374.864 786.855 374.809 786.412 374.735C786.333 374.717 786.251 374.717 786.172 374.735L784.528 374.458H784.14C783.123 374.312 782.1 374.219 781.073 374.181C780.423 374.108 779.769 374.071 779.115 374.07H778.136C777.136 374.063 776.137 374.112 775.143 374.218H774.959H774.201C773.885 374.235 773.57 374.272 773.259 374.329C772.973 374.351 772.689 374.394 772.409 374.458H772.317C772.077 374.458 771.836 374.569 771.596 374.587C771.024 374.698 770.451 374.79 769.878 374.956C769.787 374.942 769.693 374.942 769.601 374.956C769.441 374.958 769.283 374.995 769.139 375.067C768.723 375.156 768.316 375.28 767.92 375.436C767.6 375.5 767.286 375.587 766.978 375.695C766.978 375.695 766.867 375.695 766.83 375.695C766.793 375.695 766.83 375.695 766.83 375.695C766.149 375.924 765.483 376.195 764.835 376.507L764.595 376.599C764.165 376.792 763.746 377.007 763.339 377.245C763.055 377.354 762.783 377.49 762.526 377.651L776.326 369.641C777.71 368.848 779.163 368.181 780.667 367.648C780.721 367.631 780.779 367.631 780.833 367.648C782.04 367.225 783.274 366.886 784.528 366.633L784.934 366.522H785.396C786.246 366.356 787.132 366.264 788.001 366.153H788.573H788.758C789.793 366.153 790.846 366.024 791.954 366.024H792.508C793.358 366.024 794.208 366.024 795.095 366.024H795.224C795.667 366.024 796.129 366.135 796.572 366.153L798.309 366.338H798.475C799.048 366.338 799.621 366.541 800.23 366.615C800.84 366.688 801.08 366.744 801.505 366.855H801.653C802.669 367.058 803.703 367.297 804.793 367.556C805.809 367.796 806.844 368.091 807.86 368.405C807.914 368.389 807.972 368.389 808.026 368.405C808.385 368.497 808.737 368.614 809.079 368.755C809.762 368.958 810.409 369.161 811.037 369.401C811.166 369.427 811.29 369.471 811.407 369.531C811.848 369.66 812.28 369.82 812.7 370.01C813.198 370.213 813.716 370.379 814.251 370.582C814.448 370.684 814.652 370.77 814.861 370.841L816.247 371.45C816.653 371.616 817.059 371.764 817.466 371.967C817.784 372.092 818.093 372.24 818.39 372.41C818.883 372.601 819.364 372.823 819.83 373.074C820.145 373.203 820.44 373.351 820.754 373.517C821.068 373.683 821.604 373.923 821.992 374.126C822.38 374.329 822.952 374.624 823.414 374.901C823.652 374.989 823.881 375.101 824.098 375.233L826.739 376.691C826.998 376.857 827.275 376.986 827.515 377.171C828.698 377.835 829.843 378.555 830.988 379.293C831.58 379.625 832.152 380.031 832.725 380.401C833.004 380.612 833.294 380.809 833.593 380.991L834.48 381.582C835.662 382.394 836.807 383.206 837.971 384.055L839.043 384.904C839.375 385.144 839.726 385.365 840.059 385.642C840.391 385.919 841.001 386.362 841.481 386.768C842.701 387.672 843.846 388.613 845.028 389.628L845.398 389.96C845.626 390.143 845.842 390.34 846.044 390.551C846.857 391.215 847.67 391.898 848.483 392.636C849.296 393.374 850.238 394.223 851.087 395.072C851.259 395.201 851.414 395.349 851.549 395.515C851.644 395.563 851.727 395.632 851.789 395.718C852.873 396.739 853.926 397.773 854.948 398.819L856.556 400.517C856.796 400.738 857.036 401.015 857.276 401.255C857.516 401.495 857.682 401.661 857.886 401.901C858.791 402.879 859.733 403.931 860.62 404.927C861.063 405.407 861.469 405.924 861.876 406.385L862.486 407.123C862.726 407.4 862.984 407.677 863.188 407.936C864.111 409.024 864.943 410.076 865.792 411.147C866.106 411.553 866.402 411.959 866.734 412.365C867.067 412.771 867.252 413.011 867.492 413.343L868.471 414.635C869.284 415.742 870.06 416.905 870.873 418.012L871.778 419.322L872.018 419.673C872.498 420.337 872.905 421.094 873.366 421.758C874.253 423.179 875.214 424.564 876.008 425.948L876.322 426.464C877.301 428.052 878.169 429.676 879.056 431.281C879.056 431.429 879.186 431.558 879.259 431.687C879.357 431.854 879.443 432.026 879.518 432.204C879.924 432.979 880.331 433.717 880.719 434.492C881.107 435.267 881.495 436.061 881.864 436.836C882.067 437.261 882.234 437.704 882.437 438.11C882.505 438.239 882.56 438.375 882.603 438.516C882.714 438.719 882.806 438.958 882.917 439.161C883.25 439.9 883.545 440.619 883.859 441.358C884.173 442.096 884.432 442.779 884.728 443.48C884.875 443.849 885.005 444.237 885.134 444.606C885.167 444.735 885.217 444.859 885.282 444.975C885.355 445.201 885.441 445.423 885.54 445.639C885.781 446.396 886.058 447.097 886.298 447.817C886.538 448.537 886.76 449.256 886.963 449.976C887.074 450.308 887.166 450.641 887.277 450.991C887.388 451.342 887.277 451.231 887.369 451.36C887.463 451.614 887.544 451.873 887.609 452.135C887.813 452.874 888.016 453.593 888.182 454.295C888.348 454.996 888.515 455.679 888.662 456.362C888.662 456.657 888.792 457.008 888.866 457.303C888.857 457.407 888.857 457.512 888.866 457.617C888.866 457.875 888.976 458.152 889.013 458.392C889.143 459.056 889.254 459.739 889.383 460.385C889.512 461.031 889.549 461.658 889.66 462.23C889.771 462.802 889.66 463.005 889.752 463.411C889.77 463.49 889.77 463.572 889.752 463.651C889.761 463.811 889.761 463.971 889.752 464.131C889.752 464.74 889.863 465.368 889.9 465.977C889.937 466.586 890.159 467.398 890.196 467.97Z" fill="#323944"/>
<path d="M876.433 477.677L876.341 515.916V540.185C868.083 540.185 861.026 537.232 857.867 533.079V522.984L858.034 467.029C858.034 448.112 837.473 420.208 813.014 406.127C802.022 399.778 791.788 397.121 783.826 397.859C780.978 398.059 778.203 398.851 775.679 400.184C775.55 400.268 775.426 400.36 775.31 400.461C774.903 400.666 774.519 400.913 774.164 401.199C773.741 401.488 773.345 401.816 772.982 402.178C772.821 402.269 772.682 402.395 772.576 402.547C772.195 402.868 771.854 403.234 771.56 403.635C771.221 403.995 770.923 404.391 770.673 404.817C770.673 404.817 770.673 404.817 770.581 404.817C770.27 405.267 769.998 405.742 769.768 406.238C769.595 406.515 769.459 406.812 769.361 407.123C769.222 407.354 769.117 407.602 769.047 407.862C769.029 407.916 769.029 407.974 769.047 408.028C768.891 408.391 768.767 408.768 768.678 409.154C768.564 409.504 768.471 409.862 768.401 410.224C768.329 410.491 768.274 410.762 768.234 411.036C768.009 412.322 767.892 413.624 767.883 414.93V453.538V477.806C759.737 477.806 752.698 475.001 749.41 470.941V460.366L749.281 404.244C749.281 391.104 754.49 381.951 763.136 377.392C763.543 377.155 763.962 376.94 764.392 376.746L764.632 376.654C765.28 376.342 765.946 376.071 766.627 375.842C766.979 375.698 767.344 375.587 767.717 375.51C768.113 375.353 768.52 375.23 768.936 375.141C769.08 375.069 769.238 375.031 769.398 375.03C769.49 375.016 769.584 375.016 769.675 375.03L770.525 374.846C770.811 374.766 771.101 374.705 771.393 374.661C771.634 374.661 771.874 374.569 772.114 374.532H772.206C772.486 374.468 772.77 374.425 773.056 374.403C773.367 374.346 773.682 374.309 773.998 374.292C774.312 374.264 774.627 374.264 774.94 374.292C775.934 374.186 776.933 374.137 777.933 374.144H778.912C779.566 374.145 780.22 374.182 780.87 374.255C781.897 374.293 782.92 374.386 783.937 374.532C784.619 374.593 785.298 374.691 785.969 374.827C786.048 374.81 786.13 374.81 786.209 374.827C786.652 374.827 787.133 374.956 787.558 375.067C788.334 375.196 789.091 375.362 789.904 375.565C790.717 375.768 791.456 375.934 792.268 376.174C792.601 376.285 792.97 376.34 793.34 376.488L794.43 376.783C796.628 377.466 798.863 378.278 801.117 379.219C801.911 379.515 802.65 379.865 803.426 380.198C804.202 380.53 805.089 380.936 805.92 381.342L808.1 382.431C808.562 382.689 809.079 382.929 809.541 383.169C810.631 383.778 811.702 384.35 812.829 385.014C816.146 386.924 819.365 389 822.472 391.234L824.153 392.452C827.035 394.568 829.843 396.807 832.577 399.169C834.166 400.553 835.681 401.975 837.214 403.396C838.23 404.337 839.209 405.241 840.188 406.293C841.167 407.345 841.851 407.991 842.664 408.84C842.917 409.067 843.151 409.314 843.366 409.578C844.954 411.221 846.469 412.955 847.966 414.709C848.169 414.948 848.409 415.188 848.612 415.447C851.835 419.255 854.856 423.228 857.664 427.35C857.9 427.636 858.116 427.939 858.311 428.255C859.53 430.1 860.675 431.835 861.802 433.662C862.504 434.806 863.151 435.95 863.797 437.113C864.296 437.98 864.776 438.829 865.22 439.715C866.402 441.874 867.474 444.071 868.453 446.23C868.563 446.433 868.656 446.636 868.73 446.802C869.265 448.02 869.82 449.238 870.282 450.493C870.651 451.397 871.02 452.338 871.371 453.261C871.722 454.184 872.11 455.291 872.424 456.306C872.738 457.321 872.997 458.023 873.256 458.908C873.256 459.167 873.422 459.407 873.496 459.684C874.069 461.677 874.586 463.67 874.955 465.626C874.973 465.736 874.973 465.848 874.955 465.958C875.14 466.733 875.269 467.545 875.399 468.32C875.399 468.468 875.399 468.634 875.399 468.763C875.565 469.778 875.694 470.757 875.805 471.772C876.127 473.727 876.336 475.698 876.433 477.677Z" fill="#3A4151"/>
<path d="M626.34 228.257C627.267 228.866 628.038 229.685 628.59 230.646C629.142 231.608 629.46 232.686 629.518 233.793L629.259 325.94C629.259 334.06 623.458 337.363 616.328 333.322L526.492 281.426C522.766 278.999 519.665 275.729 517.441 271.882C515.217 268.034 513.931 263.717 513.689 259.28L513.948 167.134C513.948 165.104 515.407 164.273 517.162 165.288L526.806 170.825V156.061C526.806 127.603 547.126 116.087 571.899 130.39C596.672 144.692 616.789 179.462 616.697 207.901V222.665L626.34 228.257ZM597.429 211.647V196.883C597.429 180.606 585.994 160.748 571.844 152.591C557.693 144.434 546.11 151.004 546.073 167.263V182.027L597.448 211.555L597.429 211.647ZM581.173 279.285L579.196 257.139C582.503 256.29 584.48 253.079 584.48 248.317C584.245 243.879 582.963 239.559 580.738 235.71C578.513 231.861 575.408 228.593 571.677 226.171C564.602 222.093 558.746 225.378 558.746 233.553C558.954 238.924 560.776 244.107 563.974 248.428L561.887 268.175C561.822 269.334 562.091 270.487 562.662 271.497C563.221 272.565 564.049 273.468 565.064 274.118L577.995 281.5C578.34 281.751 578.749 281.898 579.175 281.924C579.6 281.95 580.024 281.854 580.397 281.647C580.729 281.352 580.978 280.976 581.12 280.555C581.263 280.134 581.294 279.684 581.21 279.248" fill="#D5D7E2"/>
<path d="M619.634 430.894C621.01 431.762 622.159 432.944 622.988 434.343C623.817 435.742 624.301 437.318 624.4 438.94V451.859C624.4 454.811 622.276 456.011 619.708 454.535L513.56 393.356C512.202 392.472 511.072 391.282 510.26 389.881C509.448 388.48 508.977 386.907 508.886 385.291V372.373C508.886 369.401 511.011 368.22 513.578 369.715L619.634 430.894Z" fill="#D5D7E2"/>
</svg>
